<?xml version="1.0" encoding="utf-8" standalone="no"?>
<!DOCTYPE svg PUBLIC "-//W3C//DTD SVG 1.1//EN"
  "http://www.w3.org/Graphics/SVG/1.1/DTD/svg11.dtd">
<svg xmlns:xlink="http://www.w3.org/1999/xlink" width="921.6pt" height="518.4pt" viewBox="0 0 921.6 518.4" xmlns="http://www.w3.org/2000/svg" version="1.1">
 <metadata>
  <rdf:RDF xmlns:dc="http://purl.org/dc/elements/1.1/" xmlns:cc="http://creativecommons.org/ns#" xmlns:rdf="http://www.w3.org/1999/02/22-rdf-syntax-ns#">
   <cc:Work>
    <dc:type rdf:resource="http://purl.org/dc/dcmitype/StillImage"/>
    <dc:date>2022-09-14T14:19:44.025011</dc:date>
    <dc:format>image/svg+xml</dc:format>
    <dc:creator>
     <cc:Agent>
      <dc:title>Matplotlib v3.5.1, https://matplotlib.org/</dc:title>
     </cc:Agent>
    </dc:creator>
   </cc:Work>
  </rdf:RDF>
 </metadata>
 <defs>
  <style type="text/css">*{stroke-linejoin: round; stroke-linecap: butt}</style>
 </defs>
 <g id="figure_1">
  <g id="patch_1">
   <path d="M 0 518.4 
L 921.6 518.4 
L 921.6 0 
L 0 0 
L 0 518.4 
z
" style="fill: none"/>
  </g>
  <g id="axes_1">
   <g id="patch_2">
    <path d="M 42.86 412.58 
L 455.4 412.58 
L 455.4 10.8 
L 42.86 10.8 
z
" style="fill: #ffffff"/>
   </g>
   <g id="matplotlib.axis_1">
    <g id="xtick_1">
     <g id="line2d_1">
      <defs>
       <path id="mc4b8235d58" d="M 0 0 
L 0 3.5 
" style="stroke: #000000; stroke-width: 0.8"/>
      </defs>
      <g>
       <use xlink:href="#mc4b8235d58" x="61.611818" y="412.58" style="stroke: #000000; stroke-width: 0.8"/>
      </g>
     </g>
     <g id="text_1">
      <!-- GCN -->
      <g transform="translate(64.494631 444.916875)rotate(-90)scale(0.12 -0.12)">
       <defs>
        <path id="TimesNewRomanPSMT-47" d="M 3928 4334 
L 4038 2997 
L 3928 2997 
Q 3763 3497 3500 3750 
Q 3122 4116 2528 4116 
Q 1719 4116 1297 3475 
Q 944 2934 944 2188 
Q 944 1581 1178 1081 
Q 1413 581 1792 348 
Q 2172 116 2572 116 
Q 2806 116 3025 175 
Q 3244 234 3447 350 
L 3447 1575 
Q 3447 1894 3398 1992 
Q 3350 2091 3248 2142 
Q 3147 2194 2891 2194 
L 2891 2313 
L 4531 2313 
L 4531 2194 
L 4453 2194 
Q 4209 2194 4119 2031 
Q 4056 1916 4056 1575 
L 4056 278 
Q 3697 84 3347 -6 
Q 2997 -97 2569 -97 
Q 1341 -97 703 691 
Q 225 1281 225 2053 
Q 225 2613 494 3125 
Q 813 3734 1369 4063 
Q 1834 4334 2469 4334 
Q 2700 4334 2889 4296 
Q 3078 4259 3425 4131 
Q 3600 4066 3659 4066 
Q 3719 4066 3761 4120 
Q 3803 4175 3813 4334 
L 3928 4334 
z
" transform="scale(0.015625)"/>
        <path id="TimesNewRomanPSMT-43" d="M 3853 4334 
L 3950 2894 
L 3853 2894 
Q 3659 3541 3300 3825 
Q 2941 4109 2438 4109 
Q 2016 4109 1675 3895 
Q 1334 3681 1139 3212 
Q 944 2744 944 2047 
Q 944 1472 1128 1050 
Q 1313 628 1683 403 
Q 2053 178 2528 178 
Q 2941 178 3256 354 
Q 3572 531 3950 1056 
L 4047 994 
Q 3728 428 3303 165 
Q 2878 -97 2294 -97 
Q 1241 -97 663 684 
Q 231 1266 231 2053 
Q 231 2688 515 3219 
Q 800 3750 1298 4042 
Q 1797 4334 2388 4334 
Q 2847 4334 3294 4109 
Q 3425 4041 3481 4041 
Q 3566 4041 3628 4100 
Q 3709 4184 3744 4334 
L 3853 4334 
z
" transform="scale(0.015625)"/>
        <path id="TimesNewRomanPSMT-4e" d="M -84 4238 
L 1066 4238 
L 3656 1059 
L 3656 3503 
Q 3656 3894 3569 3991 
Q 3453 4122 3203 4122 
L 3056 4122 
L 3056 4238 
L 4531 4238 
L 4531 4122 
L 4381 4122 
Q 4113 4122 4000 3959 
Q 3931 3859 3931 3503 
L 3931 -69 
L 3819 -69 
L 1025 3344 
L 1025 734 
Q 1025 344 1109 247 
Q 1228 116 1475 116 
L 1625 116 
L 1625 0 
L 150 0 
L 150 116 
L 297 116 
Q 569 116 681 278 
Q 750 378 750 734 
L 750 3681 
Q 566 3897 470 3965 
Q 375 4034 191 4094 
Q 100 4122 -84 4122 
L -84 4238 
z
" transform="scale(0.015625)"/>
       </defs>
       <use xlink:href="#TimesNewRomanPSMT-47"/>
       <use xlink:href="#TimesNewRomanPSMT-43" x="72.216797"/>
       <use xlink:href="#TimesNewRomanPSMT-4e" x="138.916016"/>
      </g>
     </g>
    </g>
    <g id="xtick_2">
     <g id="line2d_2">
      <g>
       <use xlink:href="#mc4b8235d58" x="90.460769" y="412.58" style="stroke: #000000; stroke-width: 0.8"/>
      </g>
     </g>
     <g id="text_2">
      <!-- SAGE -->
      <g transform="translate(93.343582 450.915)rotate(-90)scale(0.12 -0.12)">
       <defs>
        <path id="TimesNewRomanPSMT-53" d="M 2934 4334 
L 2934 2869 
L 2819 2869 
Q 2763 3291 2617 3541 
Q 2472 3791 2203 3937 
Q 1934 4084 1647 4084 
Q 1322 4084 1109 3886 
Q 897 3688 897 3434 
Q 897 3241 1031 3081 
Q 1225 2847 1953 2456 
Q 2547 2138 2764 1967 
Q 2981 1797 3098 1565 
Q 3216 1334 3216 1081 
Q 3216 600 2842 251 
Q 2469 -97 1881 -97 
Q 1697 -97 1534 -69 
Q 1438 -53 1133 45 
Q 828 144 747 144 
Q 669 144 623 97 
Q 578 50 556 -97 
L 441 -97 
L 441 1356 
L 556 1356 
Q 638 900 775 673 
Q 913 447 1195 297 
Q 1478 147 1816 147 
Q 2206 147 2432 353 
Q 2659 559 2659 841 
Q 2659 997 2573 1156 
Q 2488 1316 2306 1453 
Q 2184 1547 1640 1851 
Q 1097 2156 867 2337 
Q 638 2519 519 2737 
Q 400 2956 400 3219 
Q 400 3675 750 4004 
Q 1100 4334 1641 4334 
Q 1978 4334 2356 4169 
Q 2531 4091 2603 4091 
Q 2684 4091 2736 4139 
Q 2788 4188 2819 4334 
L 2934 4334 
z
" transform="scale(0.015625)"/>
        <path id="TimesNewRomanPSMT-41" d="M 2928 1419 
L 1288 1419 
L 1000 750 
Q 894 503 894 381 
Q 894 284 986 211 
Q 1078 138 1384 116 
L 1384 0 
L 50 0 
L 50 116 
Q 316 163 394 238 
Q 553 388 747 847 
L 2238 4334 
L 2347 4334 
L 3822 809 
Q 4000 384 4145 257 
Q 4291 131 4550 116 
L 4550 0 
L 2878 0 
L 2878 116 
Q 3131 128 3220 200 
Q 3309 272 3309 375 
Q 3309 513 3184 809 
L 2928 1419 
z
M 2841 1650 
L 2122 3363 
L 1384 1650 
L 2841 1650 
z
" transform="scale(0.015625)"/>
        <path id="TimesNewRomanPSMT-45" d="M 1338 4006 
L 1338 2331 
L 2269 2331 
Q 2631 2331 2753 2441 
Q 2916 2584 2934 2947 
L 3050 2947 
L 3050 1472 
L 2934 1472 
Q 2891 1781 2847 1869 
Q 2791 1978 2662 2040 
Q 2534 2103 2269 2103 
L 1338 2103 
L 1338 706 
Q 1338 425 1363 364 
Q 1388 303 1450 267 
Q 1513 231 1688 231 
L 2406 231 
Q 2766 231 2928 281 
Q 3091 331 3241 478 
Q 3434 672 3638 1063 
L 3763 1063 
L 3397 0 
L 131 0 
L 131 116 
L 281 116 
Q 431 116 566 188 
Q 666 238 702 338 
Q 738 438 738 747 
L 738 3500 
Q 738 3903 656 3997 
Q 544 4122 281 4122 
L 131 4122 
L 131 4238 
L 3397 4238 
L 3444 3309 
L 3322 3309 
Q 3256 3644 3176 3769 
Q 3097 3894 2941 3959 
Q 2816 4006 2500 4006 
L 1338 4006 
z
" transform="scale(0.015625)"/>
       </defs>
       <use xlink:href="#TimesNewRomanPSMT-53"/>
       <use xlink:href="#TimesNewRomanPSMT-41" x="55.615234"/>
       <use xlink:href="#TimesNewRomanPSMT-47" x="127.832031"/>
       <use xlink:href="#TimesNewRomanPSMT-45" x="200.048828"/>
      </g>
     </g>
    </g>
    <g id="xtick_3">
     <g id="line2d_3">
      <g>
       <use xlink:href="#mc4b8235d58" x="119.30972" y="412.58" style="stroke: #000000; stroke-width: 0.8"/>
      </g>
     </g>
     <g id="text_3">
      <!-- GAT -->
      <g transform="translate(122.192533 442.906875)rotate(-90)scale(0.12 -0.12)">
       <defs>
        <path id="TimesNewRomanPSMT-54" d="M 3703 4238 
L 3750 3244 
L 3631 3244 
Q 3597 3506 3538 3619 
Q 3441 3800 3280 3886 
Q 3119 3972 2856 3972 
L 2259 3972 
L 2259 734 
Q 2259 344 2344 247 
Q 2463 116 2709 116 
L 2856 116 
L 2856 0 
L 1059 0 
L 1059 116 
L 1209 116 
Q 1478 116 1591 278 
Q 1659 378 1659 734 
L 1659 3972 
L 1150 3972 
Q 853 3972 728 3928 
Q 566 3869 450 3700 
Q 334 3531 313 3244 
L 194 3244 
L 244 4238 
L 3703 4238 
z
" transform="scale(0.015625)"/>
       </defs>
       <use xlink:href="#TimesNewRomanPSMT-47"/>
       <use xlink:href="#TimesNewRomanPSMT-41" x="72.216797"/>
       <use xlink:href="#TimesNewRomanPSMT-54" x="133.308594"/>
      </g>
     </g>
    </g>
    <g id="xtick_4">
     <g id="line2d_4">
      <g>
       <use xlink:href="#mc4b8235d58" x="148.158671" y="412.58" style="stroke: #000000; stroke-width: 0.8"/>
      </g>
     </g>
     <g id="text_4">
      <!-- GraphUNet -->
      <g transform="translate(151.041484 475.561875)rotate(-90)scale(0.12 -0.12)">
       <defs>
        <path id="TimesNewRomanPSMT-72" d="M 1038 2947 
L 1038 2303 
Q 1397 2947 1775 2947 
Q 1947 2947 2059 2842 
Q 2172 2738 2172 2600 
Q 2172 2478 2090 2393 
Q 2009 2309 1897 2309 
Q 1788 2309 1652 2417 
Q 1516 2525 1450 2525 
Q 1394 2525 1328 2463 
Q 1188 2334 1038 2041 
L 1038 669 
Q 1038 431 1097 309 
Q 1138 225 1241 169 
Q 1344 113 1538 113 
L 1538 0 
L 72 0 
L 72 113 
Q 291 113 397 181 
Q 475 231 506 341 
Q 522 394 522 644 
L 522 1753 
Q 522 2253 501 2348 
Q 481 2444 426 2487 
Q 372 2531 291 2531 
Q 194 2531 72 2484 
L 41 2597 
L 906 2947 
L 1038 2947 
z
" transform="scale(0.015625)"/>
        <path id="TimesNewRomanPSMT-61" d="M 1822 413 
Q 1381 72 1269 19 
Q 1100 -59 909 -59 
Q 613 -59 420 144 
Q 228 347 228 678 
Q 228 888 322 1041 
Q 450 1253 767 1440 
Q 1084 1628 1822 1897 
L 1822 2009 
Q 1822 2438 1686 2597 
Q 1550 2756 1291 2756 
Q 1094 2756 978 2650 
Q 859 2544 859 2406 
L 866 2225 
Q 866 2081 792 2003 
Q 719 1925 600 1925 
Q 484 1925 411 2006 
Q 338 2088 338 2228 
Q 338 2497 613 2722 
Q 888 2947 1384 2947 
Q 1766 2947 2009 2819 
Q 2194 2722 2281 2516 
Q 2338 2381 2338 1966 
L 2338 994 
Q 2338 584 2353 492 
Q 2369 400 2405 369 
Q 2441 338 2488 338 
Q 2538 338 2575 359 
Q 2641 400 2828 588 
L 2828 413 
Q 2478 -56 2159 -56 
Q 2006 -56 1915 50 
Q 1825 156 1822 413 
z
M 1822 616 
L 1822 1706 
Q 1350 1519 1213 1441 
Q 966 1303 859 1153 
Q 753 1003 753 825 
Q 753 600 887 451 
Q 1022 303 1197 303 
Q 1434 303 1822 616 
z
" transform="scale(0.015625)"/>
        <path id="TimesNewRomanPSMT-70" d="M -6 2578 
L 875 2934 
L 994 2934 
L 994 2266 
Q 1216 2644 1439 2795 
Q 1663 2947 1909 2947 
Q 2341 2947 2628 2609 
Q 2981 2197 2981 1534 
Q 2981 794 2556 309 
Q 2206 -88 1675 -88 
Q 1444 -88 1275 -22 
Q 1150 25 994 166 
L 994 -706 
Q 994 -1000 1030 -1079 
Q 1066 -1159 1155 -1206 
Q 1244 -1253 1478 -1253 
L 1478 -1369 
L -22 -1369 
L -22 -1253 
L 56 -1253 
Q 228 -1256 350 -1188 
Q 409 -1153 442 -1076 
Q 475 -1000 475 -688 
L 475 2019 
Q 475 2297 450 2372 
Q 425 2447 370 2484 
Q 316 2522 222 2522 
Q 147 2522 31 2478 
L -6 2578 
z
M 994 2081 
L 994 1013 
Q 994 666 1022 556 
Q 1066 375 1236 237 
Q 1406 100 1666 100 
Q 1978 100 2172 344 
Q 2425 663 2425 1241 
Q 2425 1897 2138 2250 
Q 1938 2494 1663 2494 
Q 1513 2494 1366 2419 
Q 1253 2363 994 2081 
z
" transform="scale(0.015625)"/>
        <path id="TimesNewRomanPSMT-68" d="M 1041 4444 
L 1041 2350 
Q 1388 2731 1591 2839 
Q 1794 2947 1997 2947 
Q 2241 2947 2416 2812 
Q 2591 2678 2675 2391 
Q 2734 2191 2734 1659 
L 2734 647 
Q 2734 375 2778 275 
Q 2809 200 2884 156 
Q 2959 113 3159 113 
L 3159 0 
L 1753 0 
L 1753 113 
L 1819 113 
Q 2019 113 2097 173 
Q 2175 234 2206 353 
Q 2216 403 2216 647 
L 2216 1659 
Q 2216 2128 2167 2275 
Q 2119 2422 2012 2495 
Q 1906 2569 1756 2569 
Q 1603 2569 1437 2487 
Q 1272 2406 1041 2159 
L 1041 647 
Q 1041 353 1073 281 
Q 1106 209 1195 161 
Q 1284 113 1503 113 
L 1503 0 
L 84 0 
L 84 113 
Q 275 113 384 172 
Q 447 203 484 290 
Q 522 378 522 647 
L 522 3238 
Q 522 3728 498 3840 
Q 475 3953 426 3993 
Q 378 4034 297 4034 
Q 231 4034 84 3984 
L 41 4094 
L 897 4444 
L 1041 4444 
z
" transform="scale(0.015625)"/>
        <path id="TimesNewRomanPSMT-55" d="M 3053 4122 
L 3053 4238 
L 4553 4238 
L 4553 4122 
L 4394 4122 
Q 4144 4122 4009 3913 
Q 3944 3816 3944 3463 
L 3944 1744 
Q 3944 1106 3817 754 
Q 3691 403 3320 151 
Q 2950 -100 2313 -100 
Q 1619 -100 1259 140 
Q 900 381 750 788 
Q 650 1066 650 1831 
L 650 3488 
Q 650 3878 542 4000 
Q 434 4122 194 4122 
L 34 4122 
L 34 4238 
L 1866 4238 
L 1866 4122 
L 1703 4122 
Q 1441 4122 1328 3956 
Q 1250 3844 1250 3488 
L 1250 1641 
Q 1250 1394 1295 1075 
Q 1341 756 1459 578 
Q 1578 400 1801 284 
Q 2025 169 2350 169 
Q 2766 169 3094 350 
Q 3422 531 3542 814 
Q 3663 1097 3663 1772 
L 3663 3488 
Q 3663 3884 3575 3984 
Q 3453 4122 3213 4122 
L 3053 4122 
z
" transform="scale(0.015625)"/>
        <path id="TimesNewRomanPSMT-65" d="M 681 1784 
Q 678 1147 991 784 
Q 1303 422 1725 422 
Q 2006 422 2214 576 
Q 2422 731 2563 1106 
L 2659 1044 
Q 2594 616 2278 264 
Q 1963 -88 1488 -88 
Q 972 -88 605 314 
Q 238 716 238 1394 
Q 238 2128 614 2539 
Q 991 2950 1559 2950 
Q 2041 2950 2350 2633 
Q 2659 2316 2659 1784 
L 681 1784 
z
M 681 1966 
L 2006 1966 
Q 1991 2241 1941 2353 
Q 1863 2528 1708 2628 
Q 1553 2728 1384 2728 
Q 1125 2728 920 2526 
Q 716 2325 681 1966 
z
" transform="scale(0.015625)"/>
        <path id="TimesNewRomanPSMT-74" d="M 1031 3803 
L 1031 2863 
L 1700 2863 
L 1700 2644 
L 1031 2644 
L 1031 788 
Q 1031 509 1111 412 
Q 1191 316 1316 316 
Q 1419 316 1516 380 
Q 1613 444 1666 569 
L 1788 569 
Q 1678 263 1478 108 
Q 1278 -47 1066 -47 
Q 922 -47 784 33 
Q 647 113 581 261 
Q 516 409 516 719 
L 516 2644 
L 63 2644 
L 63 2747 
Q 234 2816 414 2980 
Q 594 3144 734 3369 
Q 806 3488 934 3803 
L 1031 3803 
z
" transform="scale(0.015625)"/>
       </defs>
       <use xlink:href="#TimesNewRomanPSMT-47"/>
       <use xlink:href="#TimesNewRomanPSMT-72" x="72.216797"/>
       <use xlink:href="#TimesNewRomanPSMT-61" x="105.517578"/>
       <use xlink:href="#TimesNewRomanPSMT-70" x="149.902344"/>
       <use xlink:href="#TimesNewRomanPSMT-68" x="199.902344"/>
       <use xlink:href="#TimesNewRomanPSMT-55" x="249.902344"/>
       <use xlink:href="#TimesNewRomanPSMT-4e" x="322.119141"/>
       <use xlink:href="#TimesNewRomanPSMT-65" x="394.335938"/>
       <use xlink:href="#TimesNewRomanPSMT-74" x="438.720703"/>
      </g>
     </g>
    </g>
    <g id="xtick_5">
     <g id="line2d_5">
      <g>
       <use xlink:href="#mc4b8235d58" x="177.007622" y="412.58" style="stroke: #000000; stroke-width: 0.8"/>
      </g>
     </g>
     <g id="text_5">
      <!-- GCNII -->
      <g transform="translate(179.890435 452.908125)rotate(-90)scale(0.12 -0.12)">
       <defs>
        <path id="TimesNewRomanPSMT-49" d="M 1975 116 
L 1975 0 
L 159 0 
L 159 116 
L 309 116 
Q 572 116 691 269 
Q 766 369 766 750 
L 766 3488 
Q 766 3809 725 3913 
Q 694 3991 597 4047 
Q 459 4122 309 4122 
L 159 4122 
L 159 4238 
L 1975 4238 
L 1975 4122 
L 1822 4122 
Q 1563 4122 1444 3969 
Q 1366 3869 1366 3488 
L 1366 750 
Q 1366 428 1406 325 
Q 1438 247 1538 191 
Q 1672 116 1822 116 
L 1975 116 
z
" transform="scale(0.015625)"/>
       </defs>
       <use xlink:href="#TimesNewRomanPSMT-47"/>
       <use xlink:href="#TimesNewRomanPSMT-43" x="72.216797"/>
       <use xlink:href="#TimesNewRomanPSMT-4e" x="138.916016"/>
       <use xlink:href="#TimesNewRomanPSMT-49" x="211.132812"/>
       <use xlink:href="#TimesNewRomanPSMT-49" x="244.433594"/>
      </g>
     </g>
    </g>
    <g id="xtick_6">
     <g id="line2d_6">
      <g>
       <use xlink:href="#mc4b8235d58" x="205.856573" y="412.58" style="stroke: #000000; stroke-width: 0.8"/>
      </g>
     </g>
     <g id="text_6">
      <!-- CRF-linear -->
      <g transform="translate(208.739386 473.574375)rotate(-90)scale(0.12 -0.12)">
       <defs>
        <path id="TimesNewRomanPSMT-52" d="M 4325 0 
L 3194 0 
L 1759 1981 
Q 1600 1975 1500 1975 
Q 1459 1975 1412 1976 
Q 1366 1978 1316 1981 
L 1316 750 
Q 1316 350 1403 253 
Q 1522 116 1759 116 
L 1925 116 
L 1925 0 
L 109 0 
L 109 116 
L 269 116 
Q 538 116 653 291 
Q 719 388 719 750 
L 719 3488 
Q 719 3888 631 3984 
Q 509 4122 269 4122 
L 109 4122 
L 109 4238 
L 1653 4238 
Q 2328 4238 2648 4139 
Q 2969 4041 3192 3777 
Q 3416 3513 3416 3147 
Q 3416 2756 3161 2468 
Q 2906 2181 2372 2063 
L 3247 847 
Q 3547 428 3762 290 
Q 3978 153 4325 116 
L 4325 0 
z
M 1316 2178 
Q 1375 2178 1419 2176 
Q 1463 2175 1491 2175 
Q 2097 2175 2405 2437 
Q 2713 2700 2713 3106 
Q 2713 3503 2464 3751 
Q 2216 4000 1806 4000 
Q 1625 4000 1316 3941 
L 1316 2178 
z
" transform="scale(0.015625)"/>
        <path id="TimesNewRomanPSMT-46" d="M 1309 4006 
L 1309 2341 
L 2081 2341 
Q 2347 2341 2470 2458 
Q 2594 2575 2634 2922 
L 2750 2922 
L 2750 1488 
L 2634 1488 
Q 2631 1734 2570 1850 
Q 2509 1966 2401 2023 
Q 2294 2081 2081 2081 
L 1309 2081 
L 1309 750 
Q 1309 428 1350 325 
Q 1381 247 1481 191 
Q 1619 116 1769 116 
L 1922 116 
L 1922 0 
L 103 0 
L 103 116 
L 253 116 
Q 516 116 634 269 
Q 709 369 709 750 
L 709 3488 
Q 709 3809 669 3913 
Q 638 3991 541 4047 
Q 406 4122 253 4122 
L 103 4122 
L 103 4238 
L 3256 4238 
L 3297 3306 
L 3188 3306 
Q 3106 3603 2998 3742 
Q 2891 3881 2733 3943 
Q 2575 4006 2244 4006 
L 1309 4006 
z
" transform="scale(0.015625)"/>
        <path id="TimesNewRomanPSMT-2d" d="M 259 1672 
L 1875 1672 
L 1875 1200 
L 259 1200 
L 259 1672 
z
" transform="scale(0.015625)"/>
        <path id="TimesNewRomanPSMT-6c" d="M 1184 4444 
L 1184 647 
Q 1184 378 1223 290 
Q 1263 203 1344 158 
Q 1425 113 1647 113 
L 1647 0 
L 244 0 
L 244 113 
Q 441 113 512 153 
Q 584 194 625 287 
Q 666 381 666 647 
L 666 3247 
Q 666 3731 644 3842 
Q 622 3953 573 3993 
Q 525 4034 450 4034 
Q 369 4034 244 3984 
L 191 4094 
L 1044 4444 
L 1184 4444 
z
" transform="scale(0.015625)"/>
        <path id="TimesNewRomanPSMT-69" d="M 928 4444 
Q 1059 4444 1151 4351 
Q 1244 4259 1244 4128 
Q 1244 3997 1151 3903 
Q 1059 3809 928 3809 
Q 797 3809 703 3903 
Q 609 3997 609 4128 
Q 609 4259 701 4351 
Q 794 4444 928 4444 
z
M 1188 2947 
L 1188 647 
Q 1188 378 1227 289 
Q 1266 200 1342 156 
Q 1419 113 1622 113 
L 1622 0 
L 231 0 
L 231 113 
Q 441 113 512 153 
Q 584 194 626 287 
Q 669 381 669 647 
L 669 1750 
Q 669 2216 641 2353 
Q 619 2453 572 2492 
Q 525 2531 444 2531 
Q 356 2531 231 2484 
L 188 2597 
L 1050 2947 
L 1188 2947 
z
" transform="scale(0.015625)"/>
        <path id="TimesNewRomanPSMT-6e" d="M 1034 2341 
Q 1538 2947 1994 2947 
Q 2228 2947 2397 2830 
Q 2566 2713 2666 2444 
Q 2734 2256 2734 1869 
L 2734 647 
Q 2734 375 2778 278 
Q 2813 200 2889 156 
Q 2966 113 3172 113 
L 3172 0 
L 1756 0 
L 1756 113 
L 1816 113 
Q 2016 113 2095 173 
Q 2175 234 2206 353 
Q 2219 400 2219 647 
L 2219 1819 
Q 2219 2209 2117 2386 
Q 2016 2563 1775 2563 
Q 1403 2563 1034 2156 
L 1034 647 
Q 1034 356 1069 288 
Q 1113 197 1189 155 
Q 1266 113 1500 113 
L 1500 0 
L 84 0 
L 84 113 
L 147 113 
Q 366 113 442 223 
Q 519 334 519 647 
L 519 1709 
Q 519 2225 495 2337 
Q 472 2450 423 2490 
Q 375 2531 294 2531 
Q 206 2531 84 2484 
L 38 2597 
L 900 2947 
L 1034 2947 
L 1034 2341 
z
" transform="scale(0.015625)"/>
       </defs>
       <use xlink:href="#TimesNewRomanPSMT-43"/>
       <use xlink:href="#TimesNewRomanPSMT-52" x="66.699219"/>
       <use xlink:href="#TimesNewRomanPSMT-46" x="133.398438"/>
       <use xlink:href="#TimesNewRomanPSMT-2d" x="189.013672"/>
       <use xlink:href="#TimesNewRomanPSMT-6c" x="222.314453"/>
       <use xlink:href="#TimesNewRomanPSMT-69" x="250.097656"/>
       <use xlink:href="#TimesNewRomanPSMT-6e" x="277.880859"/>
       <use xlink:href="#TimesNewRomanPSMT-65" x="327.880859"/>
       <use xlink:href="#TimesNewRomanPSMT-61" x="372.265625"/>
       <use xlink:href="#TimesNewRomanPSMT-72" x="416.650391"/>
      </g>
     </g>
    </g>
    <g id="xtick_7">
     <g id="line2d_7">
      <g>
       <use xlink:href="#mc4b8235d58" x="234.705524" y="412.58" style="stroke: #000000; stroke-width: 0.8"/>
      </g>
     </g>
     <g id="text_7">
      <!-- CRF-GCN -->
      <g transform="translate(237.588337 471.594375)rotate(-90)scale(0.12 -0.12)">
       <use xlink:href="#TimesNewRomanPSMT-43"/>
       <use xlink:href="#TimesNewRomanPSMT-52" x="66.699219"/>
       <use xlink:href="#TimesNewRomanPSMT-46" x="133.398438"/>
       <use xlink:href="#TimesNewRomanPSMT-2d" x="189.013672"/>
       <use xlink:href="#TimesNewRomanPSMT-47" x="222.314453"/>
       <use xlink:href="#TimesNewRomanPSMT-43" x="294.53125"/>
       <use xlink:href="#TimesNewRomanPSMT-4e" x="361.230469"/>
      </g>
     </g>
    </g>
    <g id="xtick_8">
     <g id="line2d_8">
      <g>
       <use xlink:href="#mc4b8235d58" x="263.554476" y="412.58" style="stroke: #000000; stroke-width: 0.8"/>
      </g>
     </g>
     <g id="text_8">
      <!-- CRF-GraphSAGE -->
      <g transform="translate(266.437288 507.58125)rotate(-90)scale(0.12 -0.12)">
       <use xlink:href="#TimesNewRomanPSMT-43"/>
       <use xlink:href="#TimesNewRomanPSMT-52" x="66.699219"/>
       <use xlink:href="#TimesNewRomanPSMT-46" x="133.398438"/>
       <use xlink:href="#TimesNewRomanPSMT-2d" x="189.013672"/>
       <use xlink:href="#TimesNewRomanPSMT-47" x="222.314453"/>
       <use xlink:href="#TimesNewRomanPSMT-72" x="294.53125"/>
       <use xlink:href="#TimesNewRomanPSMT-61" x="327.832031"/>
       <use xlink:href="#TimesNewRomanPSMT-70" x="372.216797"/>
       <use xlink:href="#TimesNewRomanPSMT-68" x="422.216797"/>
       <use xlink:href="#TimesNewRomanPSMT-53" x="472.216797"/>
       <use xlink:href="#TimesNewRomanPSMT-41" x="527.832031"/>
       <use xlink:href="#TimesNewRomanPSMT-47" x="600.048828"/>
       <use xlink:href="#TimesNewRomanPSMT-45" x="672.265625"/>
      </g>
     </g>
    </g>
    <g id="xtick_9">
     <g id="line2d_9">
      <g>
       <use xlink:href="#mc4b8235d58" x="292.403427" y="412.58" style="stroke: #000000; stroke-width: 0.8"/>
      </g>
     </g>
     <g id="text_9">
      <!-- CRF-GAT -->
      <g transform="translate(295.286239 469.584375)rotate(-90)scale(0.12 -0.12)">
       <use xlink:href="#TimesNewRomanPSMT-43"/>
       <use xlink:href="#TimesNewRomanPSMT-52" x="66.699219"/>
       <use xlink:href="#TimesNewRomanPSMT-46" x="133.398438"/>
       <use xlink:href="#TimesNewRomanPSMT-2d" x="189.013672"/>
       <use xlink:href="#TimesNewRomanPSMT-47" x="222.314453"/>
       <use xlink:href="#TimesNewRomanPSMT-41" x="294.53125"/>
       <use xlink:href="#TimesNewRomanPSMT-54" x="355.623047"/>
      </g>
     </g>
    </g>
    <g id="xtick_10">
     <g id="line2d_10">
      <g>
       <use xlink:href="#mc4b8235d58" x="321.252378" y="412.58" style="stroke: #000000; stroke-width: 0.8"/>
      </g>
     </g>
     <g id="text_10">
      <!-- CRF-GCNII -->
      <g transform="translate(324.13519 479.585625)rotate(-90)scale(0.12 -0.12)">
       <use xlink:href="#TimesNewRomanPSMT-43"/>
       <use xlink:href="#TimesNewRomanPSMT-52" x="66.699219"/>
       <use xlink:href="#TimesNewRomanPSMT-46" x="133.398438"/>
       <use xlink:href="#TimesNewRomanPSMT-2d" x="189.013672"/>
       <use xlink:href="#TimesNewRomanPSMT-47" x="222.314453"/>
       <use xlink:href="#TimesNewRomanPSMT-43" x="294.53125"/>
       <use xlink:href="#TimesNewRomanPSMT-4e" x="361.230469"/>
       <use xlink:href="#TimesNewRomanPSMT-49" x="433.447266"/>
       <use xlink:href="#TimesNewRomanPSMT-49" x="466.748047"/>
      </g>
     </g>
    </g>
    <g id="xtick_11">
     <g id="line2d_11">
      <g>
       <use xlink:href="#mc4b8235d58" x="350.101329" y="412.58" style="stroke: #000000; stroke-width: 0.8"/>
      </g>
     </g>
     <g id="text_11">
      <!-- INC-MGS-GCN -->
      <g transform="translate(352.984141 499.584375)rotate(-90)scale(0.12 -0.12)">
       <defs>
        <path id="TimesNewRomanPSMT-4d" d="M 2619 0 
L 981 3566 
L 981 734 
Q 981 344 1066 247 
Q 1181 116 1431 116 
L 1581 116 
L 1581 0 
L 106 0 
L 106 116 
L 256 116 
Q 525 116 638 278 
Q 706 378 706 734 
L 706 3503 
Q 706 3784 644 3909 
Q 600 4000 483 4061 
Q 366 4122 106 4122 
L 106 4238 
L 1306 4238 
L 2844 922 
L 4356 4238 
L 5556 4238 
L 5556 4122 
L 5409 4122 
Q 5138 4122 5025 3959 
Q 4956 3859 4956 3503 
L 4956 734 
Q 4956 344 5044 247 
Q 5159 116 5409 116 
L 5556 116 
L 5556 0 
L 3756 0 
L 3756 116 
L 3906 116 
Q 4178 116 4288 278 
Q 4356 378 4356 734 
L 4356 3566 
L 2722 0 
L 2619 0 
z
" transform="scale(0.015625)"/>
       </defs>
       <use xlink:href="#TimesNewRomanPSMT-49"/>
       <use xlink:href="#TimesNewRomanPSMT-4e" x="33.300781"/>
       <use xlink:href="#TimesNewRomanPSMT-43" x="105.517578"/>
       <use xlink:href="#TimesNewRomanPSMT-2d" x="172.216797"/>
       <use xlink:href="#TimesNewRomanPSMT-4d" x="205.517578"/>
       <use xlink:href="#TimesNewRomanPSMT-47" x="294.433594"/>
       <use xlink:href="#TimesNewRomanPSMT-53" x="366.650391"/>
       <use xlink:href="#TimesNewRomanPSMT-2d" x="422.265625"/>
       <use xlink:href="#TimesNewRomanPSMT-47" x="455.566406"/>
       <use xlink:href="#TimesNewRomanPSMT-43" x="527.783203"/>
       <use xlink:href="#TimesNewRomanPSMT-4e" x="594.482422"/>
      </g>
     </g>
    </g>
    <g id="xtick_12">
     <g id="line2d_12">
      <g>
       <use xlink:href="#mc4b8235d58" x="378.95028" y="412.58" style="stroke: #000000; stroke-width: 0.8"/>
      </g>
     </g>
     <g id="text_12">
      <!-- INC-MGS-GAT -->
      <g transform="translate(381.833092 497.574375)rotate(-90)scale(0.12 -0.12)">
       <use xlink:href="#TimesNewRomanPSMT-49"/>
       <use xlink:href="#TimesNewRomanPSMT-4e" x="33.300781"/>
       <use xlink:href="#TimesNewRomanPSMT-43" x="105.517578"/>
       <use xlink:href="#TimesNewRomanPSMT-2d" x="172.216797"/>
       <use xlink:href="#TimesNewRomanPSMT-4d" x="205.517578"/>
       <use xlink:href="#TimesNewRomanPSMT-47" x="294.433594"/>
       <use xlink:href="#TimesNewRomanPSMT-53" x="366.650391"/>
       <use xlink:href="#TimesNewRomanPSMT-2d" x="422.265625"/>
       <use xlink:href="#TimesNewRomanPSMT-47" x="455.566406"/>
       <use xlink:href="#TimesNewRomanPSMT-41" x="527.783203"/>
       <use xlink:href="#TimesNewRomanPSMT-54" x="588.875"/>
      </g>
     </g>
    </g>
    <g id="xtick_13">
     <g id="line2d_13">
      <g>
       <use xlink:href="#mc4b8235d58" x="407.799231" y="412.58" style="stroke: #000000; stroke-width: 0.8"/>
      </g>
     </g>
     <g id="text_13">
      <!-- INC-MGS-SAGE -->
      <g transform="translate(410.682043 505.5825)rotate(-90)scale(0.12 -0.12)">
       <use xlink:href="#TimesNewRomanPSMT-49"/>
       <use xlink:href="#TimesNewRomanPSMT-4e" x="33.300781"/>
       <use xlink:href="#TimesNewRomanPSMT-43" x="105.517578"/>
       <use xlink:href="#TimesNewRomanPSMT-2d" x="172.216797"/>
       <use xlink:href="#TimesNewRomanPSMT-4d" x="205.517578"/>
       <use xlink:href="#TimesNewRomanPSMT-47" x="294.433594"/>
       <use xlink:href="#TimesNewRomanPSMT-53" x="366.650391"/>
       <use xlink:href="#TimesNewRomanPSMT-2d" x="422.265625"/>
       <use xlink:href="#TimesNewRomanPSMT-53" x="455.566406"/>
       <use xlink:href="#TimesNewRomanPSMT-41" x="511.181641"/>
       <use xlink:href="#TimesNewRomanPSMT-47" x="583.398438"/>
       <use xlink:href="#TimesNewRomanPSMT-45" x="655.615234"/>
      </g>
     </g>
    </g>
    <g id="xtick_14">
     <g id="line2d_14">
      <g>
       <use xlink:href="#mc4b8235d58" x="436.648182" y="412.58" style="stroke: #000000; stroke-width: 0.8"/>
      </g>
     </g>
     <g id="text_14">
      <!-- INC-MGS-GCNII -->
      <g transform="translate(439.530994 507.575625)rotate(-90)scale(0.12 -0.12)">
       <use xlink:href="#TimesNewRomanPSMT-49"/>
       <use xlink:href="#TimesNewRomanPSMT-4e" x="33.300781"/>
       <use xlink:href="#TimesNewRomanPSMT-43" x="105.517578"/>
       <use xlink:href="#TimesNewRomanPSMT-2d" x="172.216797"/>
       <use xlink:href="#TimesNewRomanPSMT-4d" x="205.517578"/>
       <use xlink:href="#TimesNewRomanPSMT-47" x="294.433594"/>
       <use xlink:href="#TimesNewRomanPSMT-53" x="366.650391"/>
       <use xlink:href="#TimesNewRomanPSMT-2d" x="422.265625"/>
       <use xlink:href="#TimesNewRomanPSMT-47" x="455.566406"/>
       <use xlink:href="#TimesNewRomanPSMT-43" x="527.783203"/>
       <use xlink:href="#TimesNewRomanPSMT-4e" x="594.482422"/>
       <use xlink:href="#TimesNewRomanPSMT-49" x="666.699219"/>
       <use xlink:href="#TimesNewRomanPSMT-49" x="700"/>
      </g>
     </g>
    </g>
   </g>
   <g id="matplotlib.axis_2">
    <g id="ytick_1">
     <g id="line2d_15">
      <defs>
       <path id="m9e180a29ab" d="M 0 0 
L -3.5 0 
" style="stroke: #000000; stroke-width: 0.8"/>
      </defs>
      <g>
       <use xlink:href="#m9e180a29ab" x="42.86" y="398.037458" style="stroke: #000000; stroke-width: 0.8"/>
      </g>
     </g>
     <g id="text_15">
      <!-- 65 -->
      <g transform="translate(25.86 401.509333)scale(0.1 -0.1)">
       <defs>
        <path id="TimesNewRomanPSMT-36" d="M 2869 4325 
L 2869 4209 
Q 2456 4169 2195 4045 
Q 1934 3922 1679 3669 
Q 1425 3416 1258 3105 
Q 1091 2794 978 2366 
Q 1428 2675 1881 2675 
Q 2316 2675 2634 2325 
Q 2953 1975 2953 1425 
Q 2953 894 2631 456 
Q 2244 -75 1606 -75 
Q 1172 -75 869 213 
Q 275 772 275 1663 
Q 275 2231 503 2743 
Q 731 3256 1154 3653 
Q 1578 4050 1965 4187 
Q 2353 4325 2688 4325 
L 2869 4325 
z
M 925 2138 
Q 869 1716 869 1456 
Q 869 1156 980 804 
Q 1091 453 1309 247 
Q 1469 100 1697 100 
Q 1969 100 2183 356 
Q 2397 613 2397 1088 
Q 2397 1622 2184 2012 
Q 1972 2403 1581 2403 
Q 1463 2403 1327 2353 
Q 1191 2303 925 2138 
z
" transform="scale(0.015625)"/>
        <path id="TimesNewRomanPSMT-35" d="M 2778 4238 
L 2534 3706 
L 1259 3706 
L 981 3138 
Q 1809 3016 2294 2522 
Q 2709 2097 2709 1522 
Q 2709 1188 2573 903 
Q 2438 619 2231 419 
Q 2025 219 1772 97 
Q 1413 -75 1034 -75 
Q 653 -75 479 54 
Q 306 184 306 341 
Q 306 428 378 495 
Q 450 563 559 563 
Q 641 563 702 538 
Q 763 513 909 409 
Q 1144 247 1384 247 
Q 1750 247 2026 523 
Q 2303 800 2303 1197 
Q 2303 1581 2056 1914 
Q 1809 2247 1375 2428 
Q 1034 2569 447 2591 
L 1259 4238 
L 2778 4238 
z
" transform="scale(0.015625)"/>
       </defs>
       <use xlink:href="#TimesNewRomanPSMT-36"/>
       <use xlink:href="#TimesNewRomanPSMT-35" x="50"/>
      </g>
     </g>
    </g>
    <g id="ytick_2">
     <g id="line2d_16">
      <g>
       <use xlink:href="#m9e180a29ab" x="42.86" y="341.671016" style="stroke: #000000; stroke-width: 0.8"/>
      </g>
     </g>
     <g id="text_16">
      <!-- 70 -->
      <g transform="translate(25.86 345.142891)scale(0.1 -0.1)">
       <defs>
        <path id="TimesNewRomanPSMT-37" d="M 644 4238 
L 2916 4238 
L 2916 4119 
L 1503 -88 
L 1153 -88 
L 2419 3728 
L 1253 3728 
Q 900 3728 750 3644 
Q 488 3500 328 3200 
L 238 3234 
L 644 4238 
z
" transform="scale(0.015625)"/>
        <path id="TimesNewRomanPSMT-30" d="M 231 2094 
Q 231 2819 450 3342 
Q 669 3866 1031 4122 
Q 1313 4325 1613 4325 
Q 2100 4325 2488 3828 
Q 2972 3213 2972 2159 
Q 2972 1422 2759 906 
Q 2547 391 2217 158 
Q 1888 -75 1581 -75 
Q 975 -75 572 641 
Q 231 1244 231 2094 
z
M 844 2016 
Q 844 1141 1059 588 
Q 1238 122 1591 122 
Q 1759 122 1940 273 
Q 2122 425 2216 781 
Q 2359 1319 2359 2297 
Q 2359 3022 2209 3506 
Q 2097 3866 1919 4016 
Q 1791 4119 1609 4119 
Q 1397 4119 1231 3928 
Q 1006 3669 925 3112 
Q 844 2556 844 2016 
z
" transform="scale(0.015625)"/>
       </defs>
       <use xlink:href="#TimesNewRomanPSMT-37"/>
       <use xlink:href="#TimesNewRomanPSMT-30" x="50"/>
      </g>
     </g>
    </g>
    <g id="ytick_3">
     <g id="line2d_17">
      <g>
       <use xlink:href="#m9e180a29ab" x="42.86" y="285.304574" style="stroke: #000000; stroke-width: 0.8"/>
      </g>
     </g>
     <g id="text_17">
      <!-- 75 -->
      <g transform="translate(25.86 288.776449)scale(0.1 -0.1)">
       <use xlink:href="#TimesNewRomanPSMT-37"/>
       <use xlink:href="#TimesNewRomanPSMT-35" x="50"/>
      </g>
     </g>
    </g>
    <g id="ytick_4">
     <g id="line2d_18">
      <g>
       <use xlink:href="#m9e180a29ab" x="42.86" y="228.938131" style="stroke: #000000; stroke-width: 0.8"/>
      </g>
     </g>
     <g id="text_18">
      <!-- 80 -->
      <g transform="translate(25.86 232.410006)scale(0.1 -0.1)">
       <defs>
        <path id="TimesNewRomanPSMT-38" d="M 1228 2134 
Q 725 2547 579 2797 
Q 434 3047 434 3316 
Q 434 3728 753 4026 
Q 1072 4325 1600 4325 
Q 2113 4325 2425 4047 
Q 2738 3769 2738 3413 
Q 2738 3175 2569 2928 
Q 2400 2681 1866 2347 
Q 2416 1922 2594 1678 
Q 2831 1359 2831 1006 
Q 2831 559 2490 242 
Q 2150 -75 1597 -75 
Q 994 -75 656 303 
Q 388 606 388 966 
Q 388 1247 577 1523 
Q 766 1800 1228 2134 
z
M 1719 2469 
Q 2094 2806 2194 3001 
Q 2294 3197 2294 3444 
Q 2294 3772 2109 3958 
Q 1925 4144 1606 4144 
Q 1288 4144 1088 3959 
Q 888 3775 888 3528 
Q 888 3366 970 3203 
Q 1053 3041 1206 2894 
L 1719 2469 
z
M 1375 2016 
Q 1116 1797 991 1539 
Q 866 1281 866 981 
Q 866 578 1086 336 
Q 1306 94 1647 94 
Q 1984 94 2187 284 
Q 2391 475 2391 747 
Q 2391 972 2272 1150 
Q 2050 1481 1375 2016 
z
" transform="scale(0.015625)"/>
       </defs>
       <use xlink:href="#TimesNewRomanPSMT-38"/>
       <use xlink:href="#TimesNewRomanPSMT-30" x="50"/>
      </g>
     </g>
    </g>
    <g id="ytick_5">
     <g id="line2d_19">
      <g>
       <use xlink:href="#m9e180a29ab" x="42.86" y="172.571689" style="stroke: #000000; stroke-width: 0.8"/>
      </g>
     </g>
     <g id="text_19">
      <!-- 85 -->
      <g transform="translate(25.86 176.043564)scale(0.1 -0.1)">
       <use xlink:href="#TimesNewRomanPSMT-38"/>
       <use xlink:href="#TimesNewRomanPSMT-35" x="50"/>
      </g>
     </g>
    </g>
    <g id="ytick_6">
     <g id="line2d_20">
      <g>
       <use xlink:href="#m9e180a29ab" x="42.86" y="116.205247" style="stroke: #000000; stroke-width: 0.8"/>
      </g>
     </g>
     <g id="text_20">
      <!-- 90 -->
      <g transform="translate(25.86 119.677122)scale(0.1 -0.1)">
       <defs>
        <path id="TimesNewRomanPSMT-39" d="M 338 -88 
L 338 28 
Q 744 34 1094 217 
Q 1444 400 1770 856 
Q 2097 1313 2225 1859 
Q 1734 1544 1338 1544 
Q 891 1544 572 1889 
Q 253 2234 253 2806 
Q 253 3363 572 3797 
Q 956 4325 1575 4325 
Q 2097 4325 2469 3894 
Q 2925 3359 2925 2575 
Q 2925 1869 2578 1258 
Q 2231 647 1613 244 
Q 1109 -88 516 -88 
L 338 -88 
z
M 2275 2091 
Q 2331 2497 2331 2741 
Q 2331 3044 2228 3395 
Q 2125 3747 1936 3934 
Q 1747 4122 1506 4122 
Q 1228 4122 1018 3872 
Q 809 3622 809 3128 
Q 809 2469 1088 2097 
Q 1291 1828 1588 1828 
Q 1731 1828 1928 1897 
Q 2125 1966 2275 2091 
z
" transform="scale(0.015625)"/>
       </defs>
       <use xlink:href="#TimesNewRomanPSMT-39"/>
       <use xlink:href="#TimesNewRomanPSMT-30" x="50"/>
      </g>
     </g>
    </g>
    <g id="ytick_7">
     <g id="line2d_21">
      <g>
       <use xlink:href="#m9e180a29ab" x="42.86" y="59.838805" style="stroke: #000000; stroke-width: 0.8"/>
      </g>
     </g>
     <g id="text_21">
      <!-- 95 -->
      <g transform="translate(25.86 63.31068)scale(0.1 -0.1)">
       <use xlink:href="#TimesNewRomanPSMT-39"/>
       <use xlink:href="#TimesNewRomanPSMT-35" x="50"/>
      </g>
     </g>
    </g>
    <g id="text_22">
     <!-- Accuracy(%) -->
     <g transform="translate(19.270625 243.668125)rotate(-90)scale(0.12 -0.12)">
      <defs>
       <path id="TimesNewRomanPSMT-63" d="M 2631 1088 
Q 2516 522 2178 217 
Q 1841 -88 1431 -88 
Q 944 -88 581 321 
Q 219 731 219 1428 
Q 219 2103 620 2525 
Q 1022 2947 1584 2947 
Q 2006 2947 2278 2723 
Q 2550 2500 2550 2259 
Q 2550 2141 2473 2067 
Q 2397 1994 2259 1994 
Q 2075 1994 1981 2113 
Q 1928 2178 1911 2362 
Q 1894 2547 1784 2644 
Q 1675 2738 1481 2738 
Q 1169 2738 978 2506 
Q 725 2200 725 1697 
Q 725 1184 976 792 
Q 1228 400 1656 400 
Q 1963 400 2206 609 
Q 2378 753 2541 1131 
L 2631 1088 
z
" transform="scale(0.015625)"/>
       <path id="TimesNewRomanPSMT-75" d="M 2709 2863 
L 2709 1128 
Q 2709 631 2732 520 
Q 2756 409 2807 365 
Q 2859 322 2928 322 
Q 3025 322 3147 375 
L 3191 266 
L 2334 -88 
L 2194 -88 
L 2194 519 
Q 1825 119 1631 15 
Q 1438 -88 1222 -88 
Q 981 -88 804 51 
Q 628 191 559 409 
Q 491 628 491 1028 
L 491 2306 
Q 491 2509 447 2587 
Q 403 2666 317 2708 
Q 231 2750 6 2747 
L 6 2863 
L 1009 2863 
L 1009 947 
Q 1009 547 1148 422 
Q 1288 297 1484 297 
Q 1619 297 1789 381 
Q 1959 466 2194 703 
L 2194 2325 
Q 2194 2569 2105 2655 
Q 2016 2741 1734 2747 
L 1734 2863 
L 2709 2863 
z
" transform="scale(0.015625)"/>
       <path id="TimesNewRomanPSMT-79" d="M 38 2863 
L 1372 2863 
L 1372 2747 
L 1306 2747 
Q 1166 2747 1095 2686 
Q 1025 2625 1025 2534 
Q 1025 2413 1128 2197 
L 1825 753 
L 2466 2334 
Q 2519 2463 2519 2588 
Q 2519 2644 2497 2672 
Q 2472 2706 2419 2726 
Q 2366 2747 2231 2747 
L 2231 2863 
L 3163 2863 
L 3163 2747 
Q 3047 2734 2984 2696 
Q 2922 2659 2847 2556 
Q 2819 2513 2741 2316 
L 1575 -541 
Q 1406 -956 1132 -1168 
Q 859 -1381 606 -1381 
Q 422 -1381 303 -1275 
Q 184 -1169 184 -1031 
Q 184 -900 270 -820 
Q 356 -741 506 -741 
Q 609 -741 788 -809 
Q 913 -856 944 -856 
Q 1038 -856 1148 -759 
Q 1259 -663 1372 -384 
L 1575 113 
L 547 2272 
Q 500 2369 397 2513 
Q 319 2622 269 2659 
Q 197 2709 38 2747 
L 38 2863 
z
" transform="scale(0.015625)"/>
       <path id="TimesNewRomanPSMT-28" d="M 1988 -1253 
L 1988 -1369 
Q 1516 -1131 1200 -813 
Q 750 -359 506 256 
Q 263 872 263 1534 
Q 263 2503 741 3301 
Q 1219 4100 1988 4444 
L 1988 4313 
Q 1603 4100 1356 3731 
Q 1109 3363 987 2797 
Q 866 2231 866 1616 
Q 866 947 969 400 
Q 1050 -31 1165 -292 
Q 1281 -553 1476 -793 
Q 1672 -1034 1988 -1253 
z
" transform="scale(0.015625)"/>
       <path id="TimesNewRomanPSMT-25" d="M 4350 4334 
L 1263 -175 
L 984 -175 
L 4072 4334 
L 4350 4334 
z
M 1138 4334 
Q 1559 4334 1792 3984 
Q 2025 3634 2025 3181 
Q 2025 2638 1762 2341 
Q 1500 2044 1131 2044 
Q 884 2044 678 2180 
Q 472 2316 348 2584 
Q 225 2853 225 3181 
Q 225 3509 350 3786 
Q 475 4063 692 4198 
Q 909 4334 1138 4334 
z
M 1128 4159 
Q 969 4159 845 3971 
Q 722 3784 722 3184 
Q 722 2750 791 2522 
Q 844 2350 956 2256 
Q 1022 2200 1119 2200 
Q 1269 2200 1375 2363 
Q 1531 2603 1531 3166 
Q 1531 3759 1378 4000 
Q 1278 4159 1128 4159 
z
M 4206 2103 
Q 4428 2103 4648 1962 
Q 4869 1822 4989 1553 
Q 5109 1284 5109 963 
Q 5109 409 4843 117 
Q 4578 -175 4216 -175 
Q 3988 -175 3773 -34 
Q 3559 106 3436 367 
Q 3313 628 3313 963 
Q 3313 1291 3436 1562 
Q 3559 1834 3773 1968 
Q 3988 2103 4206 2103 
z
M 4209 1938 
Q 4059 1938 3950 1769 
Q 3809 1550 3809 941 
Q 3809 381 3953 159 
Q 4059 0 4209 0 
Q 4353 0 4466 172 
Q 4616 400 4616 956 
Q 4616 1544 4466 1778 
Q 4363 1938 4209 1938 
z
" transform="scale(0.015625)"/>
       <path id="TimesNewRomanPSMT-29" d="M 144 4313 
L 144 4444 
Q 619 4209 934 3891 
Q 1381 3434 1625 2820 
Q 1869 2206 1869 1541 
Q 1869 572 1392 -226 
Q 916 -1025 144 -1369 
L 144 -1253 
Q 528 -1038 776 -670 
Q 1025 -303 1145 264 
Q 1266 831 1266 1447 
Q 1266 2113 1163 2663 
Q 1084 3094 967 3353 
Q 850 3613 656 3853 
Q 463 4094 144 4313 
z
" transform="scale(0.015625)"/>
      </defs>
      <use xlink:href="#TimesNewRomanPSMT-41"/>
      <use xlink:href="#TimesNewRomanPSMT-63" x="72.216797"/>
      <use xlink:href="#TimesNewRomanPSMT-63" x="116.601562"/>
      <use xlink:href="#TimesNewRomanPSMT-75" x="160.986328"/>
      <use xlink:href="#TimesNewRomanPSMT-72" x="210.986328"/>
      <use xlink:href="#TimesNewRomanPSMT-61" x="244.287109"/>
      <use xlink:href="#TimesNewRomanPSMT-63" x="288.671875"/>
      <use xlink:href="#TimesNewRomanPSMT-79" x="333.056641"/>
      <use xlink:href="#TimesNewRomanPSMT-28" x="383.056641"/>
      <use xlink:href="#TimesNewRomanPSMT-25" x="416.357422"/>
      <use xlink:href="#TimesNewRomanPSMT-29" x="499.658203"/>
     </g>
    </g>
   </g>
   <g id="line2d_22">
    <path d="M 61.611818 267.041846 
L 90.460769 217.439377 
L 119.30972 257.234085 
L 148.158671 260.841538 
L 177.007622 217.777576 
L 205.856573 394.317273 
L 234.705524 270.3111 
L 263.554476 257.910483 
L 292.403427 268.394641 
L 321.252378 229.163597 
L 350.101329 233.672912 
L 378.95028 204.362363 
L 407.799231 187.45243 
L 436.648182 191.510814 
" clip-path="url(#p36f3533c64)" style="fill: none; stroke: #b0c4de; stroke-width: 1.5; stroke-linecap: square"/>
    <defs>
     <path id="mec3eb7c81f" d="M -3 3 
L 3 3 
L 3 -3 
L -3 -3 
z
" style="stroke: #b0c4de; stroke-linejoin: miter"/>
    </defs>
    <g clip-path="url(#p36f3533c64)">
     <use xlink:href="#mec3eb7c81f" x="61.611818" y="267.041846" style="fill: #b0c4de; stroke: #b0c4de; stroke-linejoin: miter"/>
     <use xlink:href="#mec3eb7c81f" x="90.460769" y="217.439377" style="fill: #b0c4de; stroke: #b0c4de; stroke-linejoin: miter"/>
     <use xlink:href="#mec3eb7c81f" x="119.30972" y="257.234085" style="fill: #b0c4de; stroke: #b0c4de; stroke-linejoin: miter"/>
     <use xlink:href="#mec3eb7c81f" x="148.158671" y="260.841538" style="fill: #b0c4de; stroke: #b0c4de; stroke-linejoin: miter"/>
     <use xlink:href="#mec3eb7c81f" x="177.007622" y="217.777576" style="fill: #b0c4de; stroke: #b0c4de; stroke-linejoin: miter"/>
     <use xlink:href="#mec3eb7c81f" x="205.856573" y="394.317273" style="fill: #b0c4de; stroke: #b0c4de; stroke-linejoin: miter"/>
     <use xlink:href="#mec3eb7c81f" x="234.705524" y="270.3111" style="fill: #b0c4de; stroke: #b0c4de; stroke-linejoin: miter"/>
     <use xlink:href="#mec3eb7c81f" x="263.554476" y="257.910483" style="fill: #b0c4de; stroke: #b0c4de; stroke-linejoin: miter"/>
     <use xlink:href="#mec3eb7c81f" x="292.403427" y="268.394641" style="fill: #b0c4de; stroke: #b0c4de; stroke-linejoin: miter"/>
     <use xlink:href="#mec3eb7c81f" x="321.252378" y="229.163597" style="fill: #b0c4de; stroke: #b0c4de; stroke-linejoin: miter"/>
     <use xlink:href="#mec3eb7c81f" x="350.101329" y="233.672912" style="fill: #b0c4de; stroke: #b0c4de; stroke-linejoin: miter"/>
     <use xlink:href="#mec3eb7c81f" x="378.95028" y="204.362363" style="fill: #b0c4de; stroke: #b0c4de; stroke-linejoin: miter"/>
     <use xlink:href="#mec3eb7c81f" x="407.799231" y="187.45243" style="fill: #b0c4de; stroke: #b0c4de; stroke-linejoin: miter"/>
     <use xlink:href="#mec3eb7c81f" x="436.648182" y="191.510814" style="fill: #b0c4de; stroke: #b0c4de; stroke-linejoin: miter"/>
    </g>
   </g>
   <g id="line2d_23">
    <path d="M 61.611818 257.346818 
L 90.460769 182.37945 
L 119.30972 213.719192 
L 148.158671 249.004585 
L 177.007622 174.713614 
L 205.856573 373.236223 
L 234.705524 270.987497 
L 263.554476 259.939675 
L 292.403427 265.463586 
L 321.252378 209.435342 
L 350.101329 242.240612 
L 378.95028 171.669826 
L 407.799231 169.640634 
L 436.648182 163.102127 
" clip-path="url(#p36f3533c64)" style="fill: none; stroke: #d8bfd8; stroke-width: 1.5; stroke-linecap: square"/>
    <defs>
     <path id="m125d53cd89" d="M 0 3 
C 0.795609 3 1.55874 2.683901 2.12132 2.12132 
C 2.683901 1.55874 3 0.795609 3 0 
C 3 -0.795609 2.683901 -1.55874 2.12132 -2.12132 
C 1.55874 -2.683901 0.795609 -3 0 -3 
C -0.795609 -3 -1.55874 -2.683901 -2.12132 -2.12132 
C -2.683901 -1.55874 -3 -0.795609 -3 0 
C -3 0.795609 -2.683901 1.55874 -2.12132 2.12132 
C -1.55874 2.683901 -0.795609 3 0 3 
z
" style="stroke: #d8bfd8"/>
    </defs>
    <g clip-path="url(#p36f3533c64)">
     <use xlink:href="#m125d53cd89" x="61.611818" y="257.346818" style="fill: #d8bfd8; stroke: #d8bfd8"/>
     <use xlink:href="#m125d53cd89" x="90.460769" y="182.37945" style="fill: #d8bfd8; stroke: #d8bfd8"/>
     <use xlink:href="#m125d53cd89" x="119.30972" y="213.719192" style="fill: #d8bfd8; stroke: #d8bfd8"/>
     <use xlink:href="#m125d53cd89" x="148.158671" y="249.004585" style="fill: #d8bfd8; stroke: #d8bfd8"/>
     <use xlink:href="#m125d53cd89" x="177.007622" y="174.713614" style="fill: #d8bfd8; stroke: #d8bfd8"/>
     <use xlink:href="#m125d53cd89" x="205.856573" y="373.236223" style="fill: #d8bfd8; stroke: #d8bfd8"/>
     <use xlink:href="#m125d53cd89" x="234.705524" y="270.987497" style="fill: #d8bfd8; stroke: #d8bfd8"/>
     <use xlink:href="#m125d53cd89" x="263.554476" y="259.939675" style="fill: #d8bfd8; stroke: #d8bfd8"/>
     <use xlink:href="#m125d53cd89" x="292.403427" y="265.463586" style="fill: #d8bfd8; stroke: #d8bfd8"/>
     <use xlink:href="#m125d53cd89" x="321.252378" y="209.435342" style="fill: #d8bfd8; stroke: #d8bfd8"/>
     <use xlink:href="#m125d53cd89" x="350.101329" y="242.240612" style="fill: #d8bfd8; stroke: #d8bfd8"/>
     <use xlink:href="#m125d53cd89" x="378.95028" y="171.669826" style="fill: #d8bfd8; stroke: #d8bfd8"/>
     <use xlink:href="#m125d53cd89" x="407.799231" y="169.640634" style="fill: #d8bfd8; stroke: #d8bfd8"/>
     <use xlink:href="#m125d53cd89" x="436.648182" y="163.102127" style="fill: #d8bfd8; stroke: #d8bfd8"/>
    </g>
   </g>
   <g id="line2d_24">
    <path d="M 61.611818 224.090617 
L 90.460769 56.005887 
L 119.30972 46.987256 
L 148.158671 193.427273 
L 177.007622 31.317385 
L 205.856573 344.827536 
L 234.705524 261.856134 
L 263.554476 255.430359 
L 292.403427 290.039355 
L 321.252378 92.418608 
L 350.101329 188.805224 
L 378.95028 29.851857 
L 407.799231 45.18353 
L 436.648182 29.062727 
" clip-path="url(#p36f3533c64)" style="fill: none; stroke: #87cefa; stroke-width: 1.5; stroke-linecap: square"/>
    <defs>
     <path id="mcb62d010c0" d="M 0 4.242641 
L 4.242641 0 
L 0 -4.242641 
L -4.242641 0 
z
" style="stroke: #87cefa; stroke-linejoin: miter"/>
    </defs>
    <g clip-path="url(#p36f3533c64)">
     <use xlink:href="#mcb62d010c0" x="61.611818" y="224.090617" style="fill: #87cefa; stroke: #87cefa; stroke-linejoin: miter"/>
     <use xlink:href="#mcb62d010c0" x="90.460769" y="56.005887" style="fill: #87cefa; stroke: #87cefa; stroke-linejoin: miter"/>
     <use xlink:href="#mcb62d010c0" x="119.30972" y="46.987256" style="fill: #87cefa; stroke: #87cefa; stroke-linejoin: miter"/>
     <use xlink:href="#mcb62d010c0" x="148.158671" y="193.427273" style="fill: #87cefa; stroke: #87cefa; stroke-linejoin: miter"/>
     <use xlink:href="#mcb62d010c0" x="177.007622" y="31.317385" style="fill: #87cefa; stroke: #87cefa; stroke-linejoin: miter"/>
     <use xlink:href="#mcb62d010c0" x="205.856573" y="344.827536" style="fill: #87cefa; stroke: #87cefa; stroke-linejoin: miter"/>
     <use xlink:href="#mcb62d010c0" x="234.705524" y="261.856134" style="fill: #87cefa; stroke: #87cefa; stroke-linejoin: miter"/>
     <use xlink:href="#mcb62d010c0" x="263.554476" y="255.430359" style="fill: #87cefa; stroke: #87cefa; stroke-linejoin: miter"/>
     <use xlink:href="#mcb62d010c0" x="292.403427" y="290.039355" style="fill: #87cefa; stroke: #87cefa; stroke-linejoin: miter"/>
     <use xlink:href="#mcb62d010c0" x="321.252378" y="92.418608" style="fill: #87cefa; stroke: #87cefa; stroke-linejoin: miter"/>
     <use xlink:href="#mcb62d010c0" x="350.101329" y="188.805224" style="fill: #87cefa; stroke: #87cefa; stroke-linejoin: miter"/>
     <use xlink:href="#mcb62d010c0" x="378.95028" y="29.851857" style="fill: #87cefa; stroke: #87cefa; stroke-linejoin: miter"/>
     <use xlink:href="#mcb62d010c0" x="407.799231" y="45.18353" style="fill: #87cefa; stroke: #87cefa; stroke-linejoin: miter"/>
     <use xlink:href="#mcb62d010c0" x="436.648182" y="29.062727" style="fill: #87cefa; stroke: #87cefa; stroke-linejoin: miter"/>
    </g>
   </g>
   <g id="patch_3">
    <path d="M 42.86 412.58 
L 42.86 10.8 
" style="fill: none; stroke: #000000; stroke-width: 0.8; stroke-linejoin: miter; stroke-linecap: square"/>
   </g>
   <g id="patch_4">
    <path d="M 42.86 412.58 
L 455.4 412.58 
" style="fill: none; stroke: #000000; stroke-width: 0.8; stroke-linejoin: miter; stroke-linecap: square"/>
   </g>
   <g id="legend_1">
    <g id="patch_5">
     <path d="M 51.26 406.58 
L 122.9975 406.58 
Q 125.3975 406.58 125.3975 404.18 
L 125.3975 354.479375 
Q 125.3975 352.079375 122.9975 352.079375 
L 51.26 352.079375 
Q 48.86 352.079375 48.86 354.479375 
L 48.86 404.18 
Q 48.86 406.58 51.26 406.58 
z
" style="fill: #ffffff; opacity: 0.8; stroke: #cccccc; stroke-linejoin: miter"/>
    </g>
    <g id="line2d_25">
     <path d="M 53.66 361.079375 
L 65.66 361.079375 
L 77.66 361.079375 
" style="fill: none; stroke: #b0c4de; stroke-width: 1.5; stroke-linecap: square"/>
     <g>
      <use xlink:href="#mec3eb7c81f" x="65.66" y="361.079375" style="fill: #b0c4de; stroke: #b0c4de; stroke-linejoin: miter"/>
     </g>
    </g>
    <g id="text_23">
     <!-- PPI-1 -->
     <g transform="translate(87.26 365.279375)scale(0.12 -0.12)">
      <defs>
       <path id="TimesNewRomanPSMT-50" d="M 1313 1984 
L 1313 750 
Q 1313 350 1400 253 
Q 1519 116 1759 116 
L 1922 116 
L 1922 0 
L 106 0 
L 106 116 
L 266 116 
Q 534 116 650 291 
Q 713 388 713 750 
L 713 3488 
Q 713 3888 628 3984 
Q 506 4122 266 4122 
L 106 4122 
L 106 4238 
L 1659 4238 
Q 2228 4238 2556 4120 
Q 2884 4003 3109 3725 
Q 3334 3447 3334 3066 
Q 3334 2547 2992 2222 
Q 2650 1897 2025 1897 
Q 1872 1897 1694 1919 
Q 1516 1941 1313 1984 
z
M 1313 2163 
Q 1478 2131 1606 2115 
Q 1734 2100 1825 2100 
Q 2150 2100 2386 2351 
Q 2622 2603 2622 3003 
Q 2622 3278 2509 3514 
Q 2397 3750 2190 3867 
Q 1984 3984 1722 3984 
Q 1563 3984 1313 3925 
L 1313 2163 
z
" transform="scale(0.015625)"/>
       <path id="TimesNewRomanPSMT-31" d="M 750 3822 
L 1781 4325 
L 1884 4325 
L 1884 747 
Q 1884 391 1914 303 
Q 1944 216 2037 169 
Q 2131 122 2419 116 
L 2419 0 
L 825 0 
L 825 116 
Q 1125 122 1212 167 
Q 1300 213 1334 289 
Q 1369 366 1369 747 
L 1369 3034 
Q 1369 3497 1338 3628 
Q 1316 3728 1258 3775 
Q 1200 3822 1119 3822 
Q 1003 3822 797 3725 
L 750 3822 
z
" transform="scale(0.015625)"/>
      </defs>
      <use xlink:href="#TimesNewRomanPSMT-50"/>
      <use xlink:href="#TimesNewRomanPSMT-50" x="55.615234"/>
      <use xlink:href="#TimesNewRomanPSMT-49" x="111.230469"/>
      <use xlink:href="#TimesNewRomanPSMT-2d" x="144.53125"/>
      <use xlink:href="#TimesNewRomanPSMT-31" x="177.832031"/>
     </g>
    </g>
    <g id="line2d_26">
     <path d="M 53.66 378.04625 
L 65.66 378.04625 
L 77.66 378.04625 
" style="fill: none; stroke: #d8bfd8; stroke-width: 1.5; stroke-linecap: square"/>
     <g>
      <use xlink:href="#m125d53cd89" x="65.66" y="378.04625" style="fill: #d8bfd8; stroke: #d8bfd8"/>
     </g>
    </g>
    <g id="text_24">
     <!-- PPI-2 -->
     <g transform="translate(87.26 382.24625)scale(0.12 -0.12)">
      <defs>
       <path id="TimesNewRomanPSMT-32" d="M 2934 816 
L 2638 0 
L 138 0 
L 138 116 
Q 1241 1122 1691 1759 
Q 2141 2397 2141 2925 
Q 2141 3328 1894 3587 
Q 1647 3847 1303 3847 
Q 991 3847 742 3664 
Q 494 3481 375 3128 
L 259 3128 
Q 338 3706 661 4015 
Q 984 4325 1469 4325 
Q 1984 4325 2329 3994 
Q 2675 3663 2675 3213 
Q 2675 2891 2525 2569 
Q 2294 2063 1775 1497 
Q 997 647 803 472 
L 1909 472 
Q 2247 472 2383 497 
Q 2519 522 2628 598 
Q 2738 675 2819 816 
L 2934 816 
z
" transform="scale(0.015625)"/>
      </defs>
      <use xlink:href="#TimesNewRomanPSMT-50"/>
      <use xlink:href="#TimesNewRomanPSMT-50" x="55.615234"/>
      <use xlink:href="#TimesNewRomanPSMT-49" x="111.230469"/>
      <use xlink:href="#TimesNewRomanPSMT-2d" x="144.53125"/>
      <use xlink:href="#TimesNewRomanPSMT-32" x="177.832031"/>
     </g>
    </g>
    <g id="line2d_27">
     <path d="M 53.66 395.013125 
L 65.66 395.013125 
L 77.66 395.013125 
" style="fill: none; stroke: #87cefa; stroke-width: 1.5; stroke-linecap: square"/>
     <g>
      <use xlink:href="#mcb62d010c0" x="65.66" y="395.013125" style="fill: #87cefa; stroke: #87cefa; stroke-linejoin: miter"/>
     </g>
    </g>
    <g id="text_25">
     <!-- PPI-10 -->
     <g transform="translate(87.26 399.213125)scale(0.12 -0.12)">
      <use xlink:href="#TimesNewRomanPSMT-50"/>
      <use xlink:href="#TimesNewRomanPSMT-50" x="55.615234"/>
      <use xlink:href="#TimesNewRomanPSMT-49" x="111.230469"/>
      <use xlink:href="#TimesNewRomanPSMT-2d" x="144.53125"/>
      <use xlink:href="#TimesNewRomanPSMT-31" x="177.832031"/>
      <use xlink:href="#TimesNewRomanPSMT-30" x="227.832031"/>
     </g>
    </g>
   </g>
  </g>
  <g id="axes_2">
   <g id="patch_6">
    <path d="M 498.26 412.58 
L 910.8 412.58 
L 910.8 10.8 
L 498.26 10.8 
z
" style="fill: #ffffff"/>
   </g>
   <g id="matplotlib.axis_3">
    <g id="xtick_15">
     <g id="line2d_28">
      <g>
       <use xlink:href="#mc4b8235d58" x="517.011818" y="412.58" style="stroke: #000000; stroke-width: 0.8"/>
      </g>
     </g>
     <g id="text_26">
      <!-- GCN -->
      <g transform="translate(519.894631 444.916875)rotate(-90)scale(0.12 -0.12)">
       <use xlink:href="#TimesNewRomanPSMT-47"/>
       <use xlink:href="#TimesNewRomanPSMT-43" x="72.216797"/>
       <use xlink:href="#TimesNewRomanPSMT-4e" x="138.916016"/>
      </g>
     </g>
    </g>
    <g id="xtick_16">
     <g id="line2d_29">
      <g>
       <use xlink:href="#mc4b8235d58" x="545.860769" y="412.58" style="stroke: #000000; stroke-width: 0.8"/>
      </g>
     </g>
     <g id="text_27">
      <!-- SAGE -->
      <g transform="translate(548.743582 450.915)rotate(-90)scale(0.12 -0.12)">
       <use xlink:href="#TimesNewRomanPSMT-53"/>
       <use xlink:href="#TimesNewRomanPSMT-41" x="55.615234"/>
       <use xlink:href="#TimesNewRomanPSMT-47" x="127.832031"/>
       <use xlink:href="#TimesNewRomanPSMT-45" x="200.048828"/>
      </g>
     </g>
    </g>
    <g id="xtick_17">
     <g id="line2d_30">
      <g>
       <use xlink:href="#mc4b8235d58" x="574.70972" y="412.58" style="stroke: #000000; stroke-width: 0.8"/>
      </g>
     </g>
     <g id="text_28">
      <!-- GAT -->
      <g transform="translate(577.592533 442.906875)rotate(-90)scale(0.12 -0.12)">
       <use xlink:href="#TimesNewRomanPSMT-47"/>
       <use xlink:href="#TimesNewRomanPSMT-41" x="72.216797"/>
       <use xlink:href="#TimesNewRomanPSMT-54" x="133.308594"/>
      </g>
     </g>
    </g>
    <g id="xtick_18">
     <g id="line2d_31">
      <g>
       <use xlink:href="#mc4b8235d58" x="603.558671" y="412.58" style="stroke: #000000; stroke-width: 0.8"/>
      </g>
     </g>
     <g id="text_29">
      <!-- GraphUNet -->
      <g transform="translate(606.441484 475.561875)rotate(-90)scale(0.12 -0.12)">
       <use xlink:href="#TimesNewRomanPSMT-47"/>
       <use xlink:href="#TimesNewRomanPSMT-72" x="72.216797"/>
       <use xlink:href="#TimesNewRomanPSMT-61" x="105.517578"/>
       <use xlink:href="#TimesNewRomanPSMT-70" x="149.902344"/>
       <use xlink:href="#TimesNewRomanPSMT-68" x="199.902344"/>
       <use xlink:href="#TimesNewRomanPSMT-55" x="249.902344"/>
       <use xlink:href="#TimesNewRomanPSMT-4e" x="322.119141"/>
       <use xlink:href="#TimesNewRomanPSMT-65" x="394.335938"/>
       <use xlink:href="#TimesNewRomanPSMT-74" x="438.720703"/>
      </g>
     </g>
    </g>
    <g id="xtick_19">
     <g id="line2d_32">
      <g>
       <use xlink:href="#mc4b8235d58" x="632.407622" y="412.58" style="stroke: #000000; stroke-width: 0.8"/>
      </g>
     </g>
     <g id="text_30">
      <!-- GCNII -->
      <g transform="translate(635.290435 452.908125)rotate(-90)scale(0.12 -0.12)">
       <use xlink:href="#TimesNewRomanPSMT-47"/>
       <use xlink:href="#TimesNewRomanPSMT-43" x="72.216797"/>
       <use xlink:href="#TimesNewRomanPSMT-4e" x="138.916016"/>
       <use xlink:href="#TimesNewRomanPSMT-49" x="211.132812"/>
       <use xlink:href="#TimesNewRomanPSMT-49" x="244.433594"/>
      </g>
     </g>
    </g>
    <g id="xtick_20">
     <g id="line2d_33">
      <g>
       <use xlink:href="#mc4b8235d58" x="661.256573" y="412.58" style="stroke: #000000; stroke-width: 0.8"/>
      </g>
     </g>
     <g id="text_31">
      <!-- CRF-linear -->
      <g transform="translate(664.139386 473.574375)rotate(-90)scale(0.12 -0.12)">
       <use xlink:href="#TimesNewRomanPSMT-43"/>
       <use xlink:href="#TimesNewRomanPSMT-52" x="66.699219"/>
       <use xlink:href="#TimesNewRomanPSMT-46" x="133.398438"/>
       <use xlink:href="#TimesNewRomanPSMT-2d" x="189.013672"/>
       <use xlink:href="#TimesNewRomanPSMT-6c" x="222.314453"/>
       <use xlink:href="#TimesNewRomanPSMT-69" x="250.097656"/>
       <use xlink:href="#TimesNewRomanPSMT-6e" x="277.880859"/>
       <use xlink:href="#TimesNewRomanPSMT-65" x="327.880859"/>
       <use xlink:href="#TimesNewRomanPSMT-61" x="372.265625"/>
       <use xlink:href="#TimesNewRomanPSMT-72" x="416.650391"/>
      </g>
     </g>
    </g>
    <g id="xtick_21">
     <g id="line2d_34">
      <g>
       <use xlink:href="#mc4b8235d58" x="690.105524" y="412.58" style="stroke: #000000; stroke-width: 0.8"/>
      </g>
     </g>
     <g id="text_32">
      <!-- CRF-GCN -->
      <g transform="translate(692.988337 471.594375)rotate(-90)scale(0.12 -0.12)">
       <use xlink:href="#TimesNewRomanPSMT-43"/>
       <use xlink:href="#TimesNewRomanPSMT-52" x="66.699219"/>
       <use xlink:href="#TimesNewRomanPSMT-46" x="133.398438"/>
       <use xlink:href="#TimesNewRomanPSMT-2d" x="189.013672"/>
       <use xlink:href="#TimesNewRomanPSMT-47" x="222.314453"/>
       <use xlink:href="#TimesNewRomanPSMT-43" x="294.53125"/>
       <use xlink:href="#TimesNewRomanPSMT-4e" x="361.230469"/>
      </g>
     </g>
    </g>
    <g id="xtick_22">
     <g id="line2d_35">
      <g>
       <use xlink:href="#mc4b8235d58" x="718.954476" y="412.58" style="stroke: #000000; stroke-width: 0.8"/>
      </g>
     </g>
     <g id="text_33">
      <!-- CRF-GraphSAGE -->
      <g transform="translate(721.837288 507.58125)rotate(-90)scale(0.12 -0.12)">
       <use xlink:href="#TimesNewRomanPSMT-43"/>
       <use xlink:href="#TimesNewRomanPSMT-52" x="66.699219"/>
       <use xlink:href="#TimesNewRomanPSMT-46" x="133.398438"/>
       <use xlink:href="#TimesNewRomanPSMT-2d" x="189.013672"/>
       <use xlink:href="#TimesNewRomanPSMT-47" x="222.314453"/>
       <use xlink:href="#TimesNewRomanPSMT-72" x="294.53125"/>
       <use xlink:href="#TimesNewRomanPSMT-61" x="327.832031"/>
       <use xlink:href="#TimesNewRomanPSMT-70" x="372.216797"/>
       <use xlink:href="#TimesNewRomanPSMT-68" x="422.216797"/>
       <use xlink:href="#TimesNewRomanPSMT-53" x="472.216797"/>
       <use xlink:href="#TimesNewRomanPSMT-41" x="527.832031"/>
       <use xlink:href="#TimesNewRomanPSMT-47" x="600.048828"/>
       <use xlink:href="#TimesNewRomanPSMT-45" x="672.265625"/>
      </g>
     </g>
    </g>
    <g id="xtick_23">
     <g id="line2d_36">
      <g>
       <use xlink:href="#mc4b8235d58" x="747.803427" y="412.58" style="stroke: #000000; stroke-width: 0.8"/>
      </g>
     </g>
     <g id="text_34">
      <!-- CRF-GAT -->
      <g transform="translate(750.686239 469.584375)rotate(-90)scale(0.12 -0.12)">
       <use xlink:href="#TimesNewRomanPSMT-43"/>
       <use xlink:href="#TimesNewRomanPSMT-52" x="66.699219"/>
       <use xlink:href="#TimesNewRomanPSMT-46" x="133.398438"/>
       <use xlink:href="#TimesNewRomanPSMT-2d" x="189.013672"/>
       <use xlink:href="#TimesNewRomanPSMT-47" x="222.314453"/>
       <use xlink:href="#TimesNewRomanPSMT-41" x="294.53125"/>
       <use xlink:href="#TimesNewRomanPSMT-54" x="355.623047"/>
      </g>
     </g>
    </g>
    <g id="xtick_24">
     <g id="line2d_37">
      <g>
       <use xlink:href="#mc4b8235d58" x="776.652378" y="412.58" style="stroke: #000000; stroke-width: 0.8"/>
      </g>
     </g>
     <g id="text_35">
      <!-- CRF-GCNII -->
      <g transform="translate(779.53519 479.585625)rotate(-90)scale(0.12 -0.12)">
       <use xlink:href="#TimesNewRomanPSMT-43"/>
       <use xlink:href="#TimesNewRomanPSMT-52" x="66.699219"/>
       <use xlink:href="#TimesNewRomanPSMT-46" x="133.398438"/>
       <use xlink:href="#TimesNewRomanPSMT-2d" x="189.013672"/>
       <use xlink:href="#TimesNewRomanPSMT-47" x="222.314453"/>
       <use xlink:href="#TimesNewRomanPSMT-43" x="294.53125"/>
       <use xlink:href="#TimesNewRomanPSMT-4e" x="361.230469"/>
       <use xlink:href="#TimesNewRomanPSMT-49" x="433.447266"/>
       <use xlink:href="#TimesNewRomanPSMT-49" x="466.748047"/>
      </g>
     </g>
    </g>
    <g id="xtick_25">
     <g id="line2d_38">
      <g>
       <use xlink:href="#mc4b8235d58" x="805.501329" y="412.58" style="stroke: #000000; stroke-width: 0.8"/>
      </g>
     </g>
     <g id="text_36">
      <!-- INC-MGS-GCN -->
      <g transform="translate(808.384141 499.584375)rotate(-90)scale(0.12 -0.12)">
       <use xlink:href="#TimesNewRomanPSMT-49"/>
       <use xlink:href="#TimesNewRomanPSMT-4e" x="33.300781"/>
       <use xlink:href="#TimesNewRomanPSMT-43" x="105.517578"/>
       <use xlink:href="#TimesNewRomanPSMT-2d" x="172.216797"/>
       <use xlink:href="#TimesNewRomanPSMT-4d" x="205.517578"/>
       <use xlink:href="#TimesNewRomanPSMT-47" x="294.433594"/>
       <use xlink:href="#TimesNewRomanPSMT-53" x="366.650391"/>
       <use xlink:href="#TimesNewRomanPSMT-2d" x="422.265625"/>
       <use xlink:href="#TimesNewRomanPSMT-47" x="455.566406"/>
       <use xlink:href="#TimesNewRomanPSMT-43" x="527.783203"/>
       <use xlink:href="#TimesNewRomanPSMT-4e" x="594.482422"/>
      </g>
     </g>
    </g>
    <g id="xtick_26">
     <g id="line2d_39">
      <g>
       <use xlink:href="#mc4b8235d58" x="834.35028" y="412.58" style="stroke: #000000; stroke-width: 0.8"/>
      </g>
     </g>
     <g id="text_37">
      <!-- INC-MGS-GAT -->
      <g transform="translate(837.233092 497.574375)rotate(-90)scale(0.12 -0.12)">
       <use xlink:href="#TimesNewRomanPSMT-49"/>
       <use xlink:href="#TimesNewRomanPSMT-4e" x="33.300781"/>
       <use xlink:href="#TimesNewRomanPSMT-43" x="105.517578"/>
       <use xlink:href="#TimesNewRomanPSMT-2d" x="172.216797"/>
       <use xlink:href="#TimesNewRomanPSMT-4d" x="205.517578"/>
       <use xlink:href="#TimesNewRomanPSMT-47" x="294.433594"/>
       <use xlink:href="#TimesNewRomanPSMT-53" x="366.650391"/>
       <use xlink:href="#TimesNewRomanPSMT-2d" x="422.265625"/>
       <use xlink:href="#TimesNewRomanPSMT-47" x="455.566406"/>
       <use xlink:href="#TimesNewRomanPSMT-41" x="527.783203"/>
       <use xlink:href="#TimesNewRomanPSMT-54" x="588.875"/>
      </g>
     </g>
    </g>
    <g id="xtick_27">
     <g id="line2d_40">
      <g>
       <use xlink:href="#mc4b8235d58" x="863.199231" y="412.58" style="stroke: #000000; stroke-width: 0.8"/>
      </g>
     </g>
     <g id="text_38">
      <!-- INC-MGS-SAGE -->
      <g transform="translate(866.082043 505.5825)rotate(-90)scale(0.12 -0.12)">
       <use xlink:href="#TimesNewRomanPSMT-49"/>
       <use xlink:href="#TimesNewRomanPSMT-4e" x="33.300781"/>
       <use xlink:href="#TimesNewRomanPSMT-43" x="105.517578"/>
       <use xlink:href="#TimesNewRomanPSMT-2d" x="172.216797"/>
       <use xlink:href="#TimesNewRomanPSMT-4d" x="205.517578"/>
       <use xlink:href="#TimesNewRomanPSMT-47" x="294.433594"/>
       <use xlink:href="#TimesNewRomanPSMT-53" x="366.650391"/>
       <use xlink:href="#TimesNewRomanPSMT-2d" x="422.265625"/>
       <use xlink:href="#TimesNewRomanPSMT-53" x="455.566406"/>
       <use xlink:href="#TimesNewRomanPSMT-41" x="511.181641"/>
       <use xlink:href="#TimesNewRomanPSMT-47" x="583.398438"/>
       <use xlink:href="#TimesNewRomanPSMT-45" x="655.615234"/>
      </g>
     </g>
    </g>
    <g id="xtick_28">
     <g id="line2d_41">
      <g>
       <use xlink:href="#mc4b8235d58" x="892.048182" y="412.58" style="stroke: #000000; stroke-width: 0.8"/>
      </g>
     </g>
     <g id="text_39">
      <!-- INC-MGS-GCNII -->
      <g transform="translate(894.930994 507.575625)rotate(-90)scale(0.12 -0.12)">
       <use xlink:href="#TimesNewRomanPSMT-49"/>
       <use xlink:href="#TimesNewRomanPSMT-4e" x="33.300781"/>
       <use xlink:href="#TimesNewRomanPSMT-43" x="105.517578"/>
       <use xlink:href="#TimesNewRomanPSMT-2d" x="172.216797"/>
       <use xlink:href="#TimesNewRomanPSMT-4d" x="205.517578"/>
       <use xlink:href="#TimesNewRomanPSMT-47" x="294.433594"/>
       <use xlink:href="#TimesNewRomanPSMT-53" x="366.650391"/>
       <use xlink:href="#TimesNewRomanPSMT-2d" x="422.265625"/>
       <use xlink:href="#TimesNewRomanPSMT-47" x="455.566406"/>
       <use xlink:href="#TimesNewRomanPSMT-43" x="527.783203"/>
       <use xlink:href="#TimesNewRomanPSMT-4e" x="594.482422"/>
       <use xlink:href="#TimesNewRomanPSMT-49" x="666.699219"/>
       <use xlink:href="#TimesNewRomanPSMT-49" x="700"/>
      </g>
     </g>
    </g>
   </g>
   <g id="matplotlib.axis_4">
    <g id="ytick_8">
     <g id="line2d_42">
      <g>
       <use xlink:href="#m9e180a29ab" x="498.26" y="381.261496" style="stroke: #000000; stroke-width: 0.8"/>
      </g>
     </g>
     <g id="text_40">
      <!-- 50 -->
      <g transform="translate(481.26 384.733371)scale(0.1 -0.1)">
       <use xlink:href="#TimesNewRomanPSMT-35"/>
       <use xlink:href="#TimesNewRomanPSMT-30" x="50"/>
      </g>
     </g>
    </g>
    <g id="ytick_9">
     <g id="line2d_43">
      <g>
       <use xlink:href="#m9e180a29ab" x="498.26" y="304.462811" style="stroke: #000000; stroke-width: 0.8"/>
      </g>
     </g>
     <g id="text_41">
      <!-- 60 -->
      <g transform="translate(481.26 307.934686)scale(0.1 -0.1)">
       <use xlink:href="#TimesNewRomanPSMT-36"/>
       <use xlink:href="#TimesNewRomanPSMT-30" x="50"/>
      </g>
     </g>
    </g>
    <g id="ytick_10">
     <g id="line2d_44">
      <g>
       <use xlink:href="#m9e180a29ab" x="498.26" y="227.664126" style="stroke: #000000; stroke-width: 0.8"/>
      </g>
     </g>
     <g id="text_42">
      <!-- 70 -->
      <g transform="translate(481.26 231.136001)scale(0.1 -0.1)">
       <use xlink:href="#TimesNewRomanPSMT-37"/>
       <use xlink:href="#TimesNewRomanPSMT-30" x="50"/>
      </g>
     </g>
    </g>
    <g id="ytick_11">
     <g id="line2d_45">
      <g>
       <use xlink:href="#m9e180a29ab" x="498.26" y="150.865442" style="stroke: #000000; stroke-width: 0.8"/>
      </g>
     </g>
     <g id="text_43">
      <!-- 80 -->
      <g transform="translate(481.26 154.337317)scale(0.1 -0.1)">
       <use xlink:href="#TimesNewRomanPSMT-38"/>
       <use xlink:href="#TimesNewRomanPSMT-30" x="50"/>
      </g>
     </g>
    </g>
    <g id="ytick_12">
     <g id="line2d_46">
      <g>
       <use xlink:href="#m9e180a29ab" x="498.26" y="74.066757" style="stroke: #000000; stroke-width: 0.8"/>
      </g>
     </g>
     <g id="text_44">
      <!-- 90 -->
      <g transform="translate(481.26 77.538632)scale(0.1 -0.1)">
       <use xlink:href="#TimesNewRomanPSMT-39"/>
       <use xlink:href="#TimesNewRomanPSMT-30" x="50"/>
      </g>
     </g>
    </g>
    <g id="text_45">
     <!-- Micro-F1(%) -->
     <g transform="translate(474.693125 243.68125)rotate(-90)scale(0.12 -0.12)">
      <defs>
       <path id="TimesNewRomanPSMT-6f" d="M 1600 2947 
Q 2250 2947 2644 2453 
Q 2978 2031 2978 1484 
Q 2978 1100 2793 706 
Q 2609 313 2286 112 
Q 1963 -88 1566 -88 
Q 919 -88 538 428 
Q 216 863 216 1403 
Q 216 1797 411 2186 
Q 606 2575 925 2761 
Q 1244 2947 1600 2947 
z
M 1503 2744 
Q 1338 2744 1170 2645 
Q 1003 2547 900 2300 
Q 797 2053 797 1666 
Q 797 1041 1045 587 
Q 1294 134 1700 134 
Q 2003 134 2200 384 
Q 2397 634 2397 1244 
Q 2397 2006 2069 2444 
Q 1847 2744 1503 2744 
z
" transform="scale(0.015625)"/>
      </defs>
      <use xlink:href="#TimesNewRomanPSMT-4d"/>
      <use xlink:href="#TimesNewRomanPSMT-69" x="88.916016"/>
      <use xlink:href="#TimesNewRomanPSMT-63" x="116.699219"/>
      <use xlink:href="#TimesNewRomanPSMT-72" x="161.083984"/>
      <use xlink:href="#TimesNewRomanPSMT-6f" x="194.384766"/>
      <use xlink:href="#TimesNewRomanPSMT-2d" x="244.384766"/>
      <use xlink:href="#TimesNewRomanPSMT-46" x="277.685547"/>
      <use xlink:href="#TimesNewRomanPSMT-31" x="333.300781"/>
      <use xlink:href="#TimesNewRomanPSMT-28" x="383.300781"/>
      <use xlink:href="#TimesNewRomanPSMT-25" x="416.601562"/>
      <use xlink:href="#TimesNewRomanPSMT-29" x="499.902344"/>
     </g>
    </g>
   </g>
   <g id="line2d_47">
    <path d="M 517.011818 346.318095 
L 545.860769 248.399771 
L 574.70972 298.933306 
L 603.558671 338.715025 
L 632.407622 259.996373 
L 661.256573 394.317273 
L 690.105524 375.1944 
L 718.954476 346.164497 
L 747.803427 358.605884 
L 776.652378 295.093372 
L 805.501329 340.404596 
L 834.35028 265.141885 
L 863.199231 237.187163 
L 892.048182 243.638253 
" clip-path="url(#p264fb27d92)" style="fill: none; stroke: #b0c4de; stroke-width: 1.5; stroke-linecap: square"/>
    <g clip-path="url(#p264fb27d92)">
     <use xlink:href="#mec3eb7c81f" x="517.011818" y="346.318095" style="fill: #b0c4de; stroke: #b0c4de; stroke-linejoin: miter"/>
     <use xlink:href="#mec3eb7c81f" x="545.860769" y="248.399771" style="fill: #b0c4de; stroke: #b0c4de; stroke-linejoin: miter"/>
     <use xlink:href="#mec3eb7c81f" x="574.70972" y="298.933306" style="fill: #b0c4de; stroke: #b0c4de; stroke-linejoin: miter"/>
     <use xlink:href="#mec3eb7c81f" x="603.558671" y="338.715025" style="fill: #b0c4de; stroke: #b0c4de; stroke-linejoin: miter"/>
     <use xlink:href="#mec3eb7c81f" x="632.407622" y="259.996373" style="fill: #b0c4de; stroke: #b0c4de; stroke-linejoin: miter"/>
     <use xlink:href="#mec3eb7c81f" x="661.256573" y="394.317273" style="fill: #b0c4de; stroke: #b0c4de; stroke-linejoin: miter"/>
     <use xlink:href="#mec3eb7c81f" x="690.105524" y="375.1944" style="fill: #b0c4de; stroke: #b0c4de; stroke-linejoin: miter"/>
     <use xlink:href="#mec3eb7c81f" x="718.954476" y="346.164497" style="fill: #b0c4de; stroke: #b0c4de; stroke-linejoin: miter"/>
     <use xlink:href="#mec3eb7c81f" x="747.803427" y="358.605884" style="fill: #b0c4de; stroke: #b0c4de; stroke-linejoin: miter"/>
     <use xlink:href="#mec3eb7c81f" x="776.652378" y="295.093372" style="fill: #b0c4de; stroke: #b0c4de; stroke-linejoin: miter"/>
     <use xlink:href="#mec3eb7c81f" x="805.501329" y="340.404596" style="fill: #b0c4de; stroke: #b0c4de; stroke-linejoin: miter"/>
     <use xlink:href="#mec3eb7c81f" x="834.35028" y="265.141885" style="fill: #b0c4de; stroke: #b0c4de; stroke-linejoin: miter"/>
     <use xlink:href="#mec3eb7c81f" x="863.199231" y="237.187163" style="fill: #b0c4de; stroke: #b0c4de; stroke-linejoin: miter"/>
     <use xlink:href="#mec3eb7c81f" x="892.048182" y="243.638253" style="fill: #b0c4de; stroke: #b0c4de; stroke-linejoin: miter"/>
    </g>
   </g>
   <g id="line2d_48">
    <path d="M 517.011818 334.414298 
L 545.860769 205.162112 
L 574.70972 238.799936 
L 603.558671 311.221096 
L 632.407622 192.797524 
L 661.256573 385.485424 
L 690.105524 385.331827 
L 718.954476 354.535554 
L 747.803427 342.785355 
L 776.652378 255.542049 
L 805.501329 338.023837 
L 834.35028 201.398976 
L 863.199231 195.408679 
L 892.048182 186.807226 
" clip-path="url(#p264fb27d92)" style="fill: none; stroke: #d8bfd8; stroke-width: 1.5; stroke-linecap: square"/>
    <g clip-path="url(#p264fb27d92)">
     <use xlink:href="#m125d53cd89" x="517.011818" y="334.414298" style="fill: #d8bfd8; stroke: #d8bfd8"/>
     <use xlink:href="#m125d53cd89" x="545.860769" y="205.162112" style="fill: #d8bfd8; stroke: #d8bfd8"/>
     <use xlink:href="#m125d53cd89" x="574.70972" y="238.799936" style="fill: #d8bfd8; stroke: #d8bfd8"/>
     <use xlink:href="#m125d53cd89" x="603.558671" y="311.221096" style="fill: #d8bfd8; stroke: #d8bfd8"/>
     <use xlink:href="#m125d53cd89" x="632.407622" y="192.797524" style="fill: #d8bfd8; stroke: #d8bfd8"/>
     <use xlink:href="#m125d53cd89" x="661.256573" y="385.485424" style="fill: #d8bfd8; stroke: #d8bfd8"/>
     <use xlink:href="#m125d53cd89" x="690.105524" y="385.331827" style="fill: #d8bfd8; stroke: #d8bfd8"/>
     <use xlink:href="#m125d53cd89" x="718.954476" y="354.535554" style="fill: #d8bfd8; stroke: #d8bfd8"/>
     <use xlink:href="#m125d53cd89" x="747.803427" y="342.785355" style="fill: #d8bfd8; stroke: #d8bfd8"/>
     <use xlink:href="#m125d53cd89" x="776.652378" y="255.542049" style="fill: #d8bfd8; stroke: #d8bfd8"/>
     <use xlink:href="#m125d53cd89" x="805.501329" y="338.023837" style="fill: #d8bfd8; stroke: #d8bfd8"/>
     <use xlink:href="#m125d53cd89" x="834.35028" y="201.398976" style="fill: #d8bfd8; stroke: #d8bfd8"/>
     <use xlink:href="#m125d53cd89" x="863.199231" y="195.408679" style="fill: #d8bfd8; stroke: #d8bfd8"/>
     <use xlink:href="#m125d53cd89" x="892.048182" y="186.807226" style="fill: #d8bfd8; stroke: #d8bfd8"/>
    </g>
   </g>
   <g id="line2d_49">
    <path d="M 517.011818 285.416738 
L 545.860769 57.324643 
L 574.70972 46.956821 
L 603.558671 237.647956 
L 632.407622 29.062727 
L 661.256573 379.955919 
L 690.105524 363.137007 
L 718.954476 347.16288 
L 747.803427 343.015751 
L 776.652378 96.338375 
L 805.501329 287.874295 
L 834.35028 37.126589 
L 863.199231 57.247845 
L 892.048182 31.289889 
" clip-path="url(#p264fb27d92)" style="fill: none; stroke: #87cefa; stroke-width: 1.5; stroke-linecap: square"/>
    <g clip-path="url(#p264fb27d92)">
     <use xlink:href="#mcb62d010c0" x="517.011818" y="285.416738" style="fill: #87cefa; stroke: #87cefa; stroke-linejoin: miter"/>
     <use xlink:href="#mcb62d010c0" x="545.860769" y="57.324643" style="fill: #87cefa; stroke: #87cefa; stroke-linejoin: miter"/>
     <use xlink:href="#mcb62d010c0" x="574.70972" y="46.956821" style="fill: #87cefa; stroke: #87cefa; stroke-linejoin: miter"/>
     <use xlink:href="#mcb62d010c0" x="603.558671" y="237.647956" style="fill: #87cefa; stroke: #87cefa; stroke-linejoin: miter"/>
     <use xlink:href="#mcb62d010c0" x="632.407622" y="29.062727" style="fill: #87cefa; stroke: #87cefa; stroke-linejoin: miter"/>
     <use xlink:href="#mcb62d010c0" x="661.256573" y="379.955919" style="fill: #87cefa; stroke: #87cefa; stroke-linejoin: miter"/>
     <use xlink:href="#mcb62d010c0" x="690.105524" y="363.137007" style="fill: #87cefa; stroke: #87cefa; stroke-linejoin: miter"/>
     <use xlink:href="#mcb62d010c0" x="718.954476" y="347.16288" style="fill: #87cefa; stroke: #87cefa; stroke-linejoin: miter"/>
     <use xlink:href="#mcb62d010c0" x="747.803427" y="343.015751" style="fill: #87cefa; stroke: #87cefa; stroke-linejoin: miter"/>
     <use xlink:href="#mcb62d010c0" x="776.652378" y="96.338375" style="fill: #87cefa; stroke: #87cefa; stroke-linejoin: miter"/>
     <use xlink:href="#mcb62d010c0" x="805.501329" y="287.874295" style="fill: #87cefa; stroke: #87cefa; stroke-linejoin: miter"/>
     <use xlink:href="#mcb62d010c0" x="834.35028" y="37.126589" style="fill: #87cefa; stroke: #87cefa; stroke-linejoin: miter"/>
     <use xlink:href="#mcb62d010c0" x="863.199231" y="57.247845" style="fill: #87cefa; stroke: #87cefa; stroke-linejoin: miter"/>
     <use xlink:href="#mcb62d010c0" x="892.048182" y="31.289889" style="fill: #87cefa; stroke: #87cefa; stroke-linejoin: miter"/>
    </g>
   </g>
   <g id="patch_7">
    <path d="M 498.26 412.58 
L 498.26 10.8 
" style="fill: none; stroke: #000000; stroke-width: 0.8; stroke-linejoin: miter; stroke-linecap: square"/>
   </g>
   <g id="patch_8">
    <path d="M 498.26 412.58 
L 910.8 412.58 
" style="fill: none; stroke: #000000; stroke-width: 0.8; stroke-linejoin: miter; stroke-linecap: square"/>
   </g>
   <g id="legend_2">
    <g id="patch_9">
     <path d="M 506.66 406.58 
L 578.3975 406.58 
Q 580.7975 406.58 580.7975 404.18 
L 580.7975 354.479375 
Q 580.7975 352.079375 578.3975 352.079375 
L 506.66 352.079375 
Q 504.26 352.079375 504.26 354.479375 
L 504.26 404.18 
Q 504.26 406.58 506.66 406.58 
z
" style="fill: #ffffff; opacity: 0.8; stroke: #cccccc; stroke-linejoin: miter"/>
    </g>
    <g id="line2d_50">
     <path d="M 509.06 361.079375 
L 521.06 361.079375 
L 533.06 361.079375 
" style="fill: none; stroke: #b0c4de; stroke-width: 1.5; stroke-linecap: square"/>
     <g>
      <use xlink:href="#mec3eb7c81f" x="521.06" y="361.079375" style="fill: #b0c4de; stroke: #b0c4de; stroke-linejoin: miter"/>
     </g>
    </g>
    <g id="text_46">
     <!-- PPI-1 -->
     <g transform="translate(542.66 365.279375)scale(0.12 -0.12)">
      <use xlink:href="#TimesNewRomanPSMT-50"/>
      <use xlink:href="#TimesNewRomanPSMT-50" x="55.615234"/>
      <use xlink:href="#TimesNewRomanPSMT-49" x="111.230469"/>
      <use xlink:href="#TimesNewRomanPSMT-2d" x="144.53125"/>
      <use xlink:href="#TimesNewRomanPSMT-31" x="177.832031"/>
     </g>
    </g>
    <g id="line2d_51">
     <path d="M 509.06 378.04625 
L 521.06 378.04625 
L 533.06 378.04625 
" style="fill: none; stroke: #d8bfd8; stroke-width: 1.5; stroke-linecap: square"/>
     <g>
      <use xlink:href="#m125d53cd89" x="521.06" y="378.04625" style="fill: #d8bfd8; stroke: #d8bfd8"/>
     </g>
    </g>
    <g id="text_47">
     <!-- PPI-2 -->
     <g transform="translate(542.66 382.24625)scale(0.12 -0.12)">
      <use xlink:href="#TimesNewRomanPSMT-50"/>
      <use xlink:href="#TimesNewRomanPSMT-50" x="55.615234"/>
      <use xlink:href="#TimesNewRomanPSMT-49" x="111.230469"/>
      <use xlink:href="#TimesNewRomanPSMT-2d" x="144.53125"/>
      <use xlink:href="#TimesNewRomanPSMT-32" x="177.832031"/>
     </g>
    </g>
    <g id="line2d_52">
     <path d="M 509.06 395.013125 
L 521.06 395.013125 
L 533.06 395.013125 
" style="fill: none; stroke: #87cefa; stroke-width: 1.5; stroke-linecap: square"/>
     <g>
      <use xlink:href="#mcb62d010c0" x="521.06" y="395.013125" style="fill: #87cefa; stroke: #87cefa; stroke-linejoin: miter"/>
     </g>
    </g>
    <g id="text_48">
     <!-- PPI-10 -->
     <g transform="translate(542.66 399.213125)scale(0.12 -0.12)">
      <use xlink:href="#TimesNewRomanPSMT-50"/>
      <use xlink:href="#TimesNewRomanPSMT-50" x="55.615234"/>
      <use xlink:href="#TimesNewRomanPSMT-49" x="111.230469"/>
      <use xlink:href="#TimesNewRomanPSMT-2d" x="144.53125"/>
      <use xlink:href="#TimesNewRomanPSMT-31" x="177.832031"/>
      <use xlink:href="#TimesNewRomanPSMT-30" x="227.832031"/>
     </g>
    </g>
   </g>
  </g>
 </g>
 <defs>
  <clipPath id="p36f3533c64">
   <rect x="42.86" y="10.8" width="412.54" height="401.78"/>
  </clipPath>
  <clipPath id="p264fb27d92">
   <rect x="498.26" y="10.8" width="412.54" height="401.78"/>
  </clipPath>
 </defs>
</svg>
